<svg width="182" height="47" viewBox="0 0 182 47" fill="none" xmlns="http://www.w3.org/2000/svg">
<g id="Gouv logo" clip-path="url(#clip0_49_300)">
<path id="Vector" d="M47.27 10.44V5.38257H47.9843V9.83071H49.8121V10.44H47.27Z" fill="white"/>
<path id="Vector_2" d="M50.9465 10.44V5.38257H53.5937V5.95128H51.6608V7.55586H53.5096V8.12457H51.6608V9.85102H53.5937V10.44H50.9465Z" fill="white"/>
<g id="Group">
<path id="Vector_3" d="M59.182 10.5212C57.7113 10.5212 56.6609 9.6275 56.6609 8.00261C56.6609 6.49958 57.6693 5.32153 59.35 5.32153C59.8332 5.32153 60.3164 5.38247 60.7996 5.54496L60.6946 6.21522C60.2534 6.03242 59.7912 5.93087 59.329 5.93087C58.3206 5.93087 57.4382 6.60114 57.4382 7.94167C57.4382 9.20096 58.1945 9.89154 59.308 9.89154C59.6231 9.89154 59.9593 9.83061 60.2114 9.74936V7.86043H60.9257V10.2165C60.4005 10.4196 59.8332 10.5212 59.203 10.5212" fill="white"/>
<path id="Vector_4" d="M64.5603 5.93092C63.6989 5.93092 62.9426 6.62149 62.9426 7.88079C62.9426 8.95728 63.3418 9.87128 64.5183 9.87128C65.4427 9.87128 66.157 9.20101 66.157 7.94172C66.157 6.68243 65.5477 5.93092 64.5393 5.93092M64.4762 10.5212C62.9006 10.5212 62.1863 9.44474 62.1863 7.96203C62.1863 6.27621 63.2997 5.30127 64.6233 5.30127C66.0519 5.30127 66.9343 6.21527 66.9343 7.88079C66.9343 9.5463 65.8418 10.5415 64.4762 10.5415" fill="white"/>
<path id="Vector_5" d="M70.2957 10.5213C68.9721 10.5213 68.2788 9.87133 68.2788 8.7136V5.38257H68.9931V8.61204C68.9931 9.50573 69.4973 9.91195 70.3587 9.91195C71.3461 9.91195 71.7243 9.32293 71.7243 8.49017V5.38257H72.4386V8.5308C72.4386 9.60729 71.8293 10.5213 70.3167 10.5213" fill="white"/>
<path id="Vector_6" d="M76.0942 10.4401H75.2959L73.363 5.3623H74.1614L75.2749 8.36835C75.4429 8.79489 75.569 9.22142 75.695 9.64796C75.8211 9.22142 75.9681 8.8152 76.1152 8.40898L77.2917 5.3623H78.027L76.0732 10.4401H76.0942Z" fill="white"/>
</g>
<path id="Vector_7" d="M79.0144 10.44V5.38257H81.6615V5.95128H79.7287V7.55586H81.5775V8.12457H79.7287V9.85102H81.6615V10.44H79.0144Z" fill="white"/>
<g id="Group_2">
<path id="Vector_8" d="M84.4978 5.93077C84.2667 5.93077 84.1197 5.93077 83.9726 5.95108V7.65722C84.1197 7.65722 84.3297 7.67753 84.5188 7.67753C85.1701 7.67753 85.5903 7.31193 85.5903 6.74322C85.5903 6.17451 85.1701 5.91046 84.4978 5.91046M85.7373 10.4398L84.0146 8.18531H83.9936V10.4398H83.2793V5.36206C83.5734 5.36206 84.0356 5.36206 84.6239 5.36206C85.7373 5.36206 86.3676 5.82922 86.3676 6.66197C86.3676 7.55566 85.6953 8.06344 84.7919 8.12438C84.918 8.26655 85.0651 8.44936 85.2331 8.65247L86.6617 10.4398H85.7583H85.7373Z" fill="white"/>
<path id="Vector_9" d="M91.1997 10.4398L89.2039 7.27131C88.9938 6.94633 88.7837 6.56042 88.6366 6.25575C88.6366 6.60104 88.6786 6.98695 88.6786 7.57598V10.4398H87.9854V5.36206H88.9097L90.8846 8.48998C91.0947 8.81496 91.3048 9.18056 91.4728 9.52585C91.4728 9.18056 91.4308 8.57122 91.4308 7.73846V5.36206H92.1241V10.4398H91.1787H91.1997Z" fill="white"/>
</g>
<path id="Vector_10" d="M94.0359 10.44V5.38257H96.704V5.95128H94.7502V7.55586H96.62V8.12457H94.7502V9.85102H96.704V10.44H94.0359Z" fill="white"/>
<path id="Vector_11" d="M103.343 10.4398L102.944 7.47442C102.881 6.8854 102.839 6.47917 102.797 6.21513C102.734 6.43855 102.671 6.74322 102.544 7.08851L101.431 10.4398H100.654L99.6242 7.29162C99.4982 6.92602 99.3721 6.5198 99.3091 6.21513C99.2881 6.60104 99.246 7.00726 99.183 7.49473L98.8259 10.4398H98.1116L98.8469 5.36206H99.7293L100.822 8.63216C100.948 8.97745 101.053 9.32273 101.095 9.60709C101.179 9.2618 101.242 9.03838 101.368 8.69309L102.502 5.38237H103.427L104.141 10.4602H103.385L103.343 10.4398Z" fill="white"/>
<path id="Vector_12" d="M105.759 10.44V5.38257H108.427V5.95128H106.473V7.55586H108.343V8.12457H106.473V9.85102H108.427V10.44H105.759Z" fill="white"/>
<path id="Vector_13" d="M113.259 10.4398L111.263 7.27131C111.053 6.94633 110.843 6.56042 110.696 6.25575C110.696 6.60104 110.738 6.98695 110.738 7.57598V10.4398H110.045V5.36206H110.969L112.944 8.48998C113.154 8.81496 113.364 9.18056 113.532 9.52585C113.532 9.18056 113.49 8.57122 113.49 7.73846V5.36206H114.183V10.4398H113.238H113.259Z" fill="white"/>
<path id="Vector_14" d="M117.419 5.9919V10.44H116.704V5.9919H115.234V5.38257H118.889V5.9919H117.419Z" fill="white"/>
<g id="Group_3">
<path id="Vector_15" d="M48.7406 16.3097C48.5095 16.3097 48.2364 16.3097 48.0053 16.33V20.1892C48.1734 20.1892 48.4885 20.2298 48.6986 20.2298C49.8961 20.2298 50.7365 19.6204 50.7365 18.2596C50.7365 16.8987 50.0642 16.3097 48.7406 16.3097ZM48.6146 20.8188C48.0683 20.8188 47.6692 20.7985 47.291 20.7985V15.741C47.6902 15.741 48.3415 15.7207 48.8667 15.7207C50.4844 15.7207 51.4928 16.4519 51.4928 18.219C51.4928 19.986 50.2743 20.8391 48.6146 20.8391" fill="white"/>
<path id="Vector_16" d="M54.8123 20.8799C53.4887 20.8799 52.7954 20.23 52.7954 19.0722V15.7412H53.5097V18.9707C53.5097 19.8644 54.0139 20.2706 54.8753 20.2706C55.8837 20.2706 56.2409 19.6816 56.2409 18.8488V15.7412H56.9552V18.8894C56.9552 19.9659 56.3459 20.8799 54.8333 20.8799" fill="white"/>
<path id="Vector_17" d="M62.7745 20.8798C61.3039 20.8798 60.2534 19.9861 60.2534 18.3612C60.2534 16.8582 61.2618 15.6802 62.9426 15.6802C63.4258 15.6802 63.909 15.7411 64.3922 15.9036L64.2871 16.5739C63.8249 16.3911 63.3837 16.2895 62.9215 16.2895C61.9131 16.2895 61.0307 16.9598 61.0307 18.3003C61.0307 19.5596 61.7871 20.2502 62.9005 20.2502C63.2157 20.2502 63.5518 20.1893 63.8039 20.108V18.2191H64.5182V20.5752C63.993 20.7783 63.4258 20.8798 62.7955 20.8798" fill="white"/>
<path id="Vector_18" d="M67.5015 16.2896C67.2704 16.2896 67.1233 16.2896 66.9763 16.3099V18.0161C67.1233 18.0161 67.3334 18.0161 67.5225 18.0161C68.1738 18.0161 68.5939 17.6505 68.5939 17.1021C68.5939 16.5537 68.1738 16.2693 67.5015 16.2693M68.741 20.7987L67.0183 18.5441H66.9973V20.7987H66.283V15.7412C66.5771 15.7412 67.0393 15.7412 67.6275 15.7412C68.741 15.7412 69.3713 16.1881 69.3713 17.0411C69.3713 17.9348 68.699 18.4426 67.7956 18.5035C67.9217 18.6457 68.0687 18.8285 68.2368 19.0316L69.6654 20.819H68.762L68.741 20.7987Z" fill="white"/>
<path id="Vector_19" d="M72.8378 17.3661C72.7327 17.0614 72.6277 16.7365 72.5436 16.4927C72.4806 16.7365 72.3756 17.0614 72.2705 17.3661L71.6192 19.1129H73.51L72.8588 17.3661H72.8378ZM74.0983 20.7987L73.6781 19.6613H71.3881L70.968 20.7987H70.2537L72.1865 15.7412H72.9848L74.8756 20.7987H74.0773H74.0983Z" fill="white"/>
<path id="Vector_20" d="M79.2666 20.7987L77.2708 17.6301C77.0607 17.3052 76.8506 16.9193 76.7035 16.6146C76.7035 16.9599 76.7455 17.3458 76.7455 17.9348V20.7987H76.0522V15.7412H76.9766L78.9515 18.8691C79.1616 19.1941 79.3717 19.5597 79.5397 19.905C79.5397 19.5597 79.4977 18.9504 79.4977 18.1176V15.7412H80.191V20.7987H79.2456H79.2666Z" fill="white"/>
<path id="Vector_21" d="M83.5524 16.3097C83.3213 16.3097 83.0482 16.3097 82.8171 16.33V20.1892C82.9851 20.1892 83.3003 20.2298 83.5104 20.2298C84.7079 20.2298 85.5482 19.6204 85.5482 18.2596C85.5482 16.8987 84.876 16.3097 83.5524 16.3097ZM83.4263 20.8188C82.8801 20.8188 82.4809 20.7985 82.1028 20.7985V15.741C82.502 15.741 83.1532 15.7207 83.6784 15.7207C85.2961 15.7207 86.3046 16.4519 86.3046 18.219C86.3046 19.986 85.086 20.8391 83.4263 20.8391" fill="white"/>
</g>
<path id="Vector_22" d="M89.3297 18.0769H87.1448V18.6659H89.3297V18.0769Z" fill="white"/>
<g id="Group_4">
<path id="Vector_23" d="M92.1449 16.3097C91.9138 16.3097 91.6407 16.3097 91.4096 16.33V20.1892C91.5777 20.1892 91.8928 20.2298 92.1029 20.2298C93.3004 20.2298 94.1408 19.6204 94.1408 18.2596C94.1408 16.8987 93.4685 16.3097 92.1449 16.3097ZM92.0189 20.8188C91.4726 20.8188 91.0735 20.7985 90.6953 20.7985V15.741C91.0945 15.741 91.7458 15.7207 92.271 15.7207C93.8887 15.7207 94.8971 16.4519 94.8971 18.219C94.8971 19.986 93.6786 20.8391 92.0189 20.8391" fill="white"/>
<path id="Vector_24" d="M98.2376 20.8799C96.914 20.8799 96.2207 20.23 96.2207 19.0722V15.7412H96.935V18.9707C96.935 19.8644 97.4392 20.2706 98.3006 20.2706C99.288 20.2706 99.6662 19.6816 99.6662 18.8488V15.7412H100.38V18.8894C100.38 19.9659 99.7712 20.8799 98.2586 20.8799" fill="white"/>
<path id="Vector_25" d="M104.078 20.8798C102.523 20.8798 101.725 19.9455 101.725 18.3816C101.725 16.9192 102.502 15.6802 104.288 15.6802C104.645 15.6802 105.066 15.7208 105.423 15.8224L105.36 16.4926C104.96 16.3708 104.582 16.2895 104.204 16.2895C103.049 16.2895 102.502 17.1629 102.502 18.28C102.502 19.519 103.112 20.2096 104.267 20.2096C104.666 20.2096 105.087 20.108 105.423 19.9455L105.486 20.5955C105.087 20.758 104.624 20.8595 104.12 20.8595" fill="white"/>
</g>
<path id="Vector_26" d="M110.171 20.7987V18.5035H107.523V20.7987H106.809V15.7412H107.523V17.8739H110.171V15.7412H110.885V20.7987H110.171Z" fill="white"/>
<path id="Vector_27" d="M113.826 15.1521L113.511 14.7459L114.729 13.6694L115.108 14.1772L113.805 15.1521H113.826ZM112.755 20.7986V15.7412H115.423V16.3099H113.469V17.9145H115.339V18.4832H113.469V20.2096H115.423V20.7986H112.755Z" fill="white"/>
<path id="Vector_28" d="M120.465 16.31C120.234 16.31 119.961 16.31 119.73 16.3303V20.1894C119.898 20.1894 120.213 20.23 120.423 20.23C121.62 20.23 122.461 19.6207 122.461 18.2598C122.461 16.899 121.789 16.31 120.465 16.31ZM120.339 20.819C119.793 20.819 119.394 20.7987 119.015 20.7987V15.7413C119.415 15.7413 120.066 15.7209 120.591 15.7209C122.209 15.7209 123.217 16.4521 123.217 18.2192C123.217 19.9863 121.999 20.8394 120.339 20.8394" fill="white"/>
<path id="Vector_29" d="M124.562 20.7987V15.7412H127.23V16.3099H125.276V17.9145H127.146V18.4832H125.276V20.2097H127.23V20.7987H124.562Z" fill="white"/>
<path id="Vector_30" d="M130.801 20.7987V15.7412H131.516V20.1894H133.343V20.7987H130.801Z" fill="white"/>
<path id="Vector_31" d="M136.369 20.8799C135.045 20.8799 134.352 20.23 134.352 19.0722V15.7412H135.066V18.9707C135.066 19.8644 135.57 20.2706 136.432 20.2706C137.419 20.2706 137.776 19.6816 137.776 18.8488V15.7412H138.491V18.8894C138.491 19.9659 137.881 20.8799 136.369 20.8799Z" fill="white"/>
<path id="Vector_32" d="M143.26 20.7987L141.852 18.7676L140.444 20.7987H139.562L141.453 18.2801L139.625 15.7412H140.549L141.894 17.7317L143.302 15.7412H144.142L142.314 18.2395L144.226 20.7987H143.26Z" fill="white"/>
<path id="Vector_33" d="M145.424 20.7987V15.7412H148.092V16.3099H146.138V17.9145H148.008V18.4832H146.138V20.2097H148.092V20.7987H145.424Z" fill="white"/>
<g id="Group_5">
<path id="Vector_34" d="M154.751 20.7987L154.352 17.8333C154.268 17.2442 154.247 16.8583 154.205 16.574C154.142 16.7974 154.079 17.1021 153.953 17.4473L152.84 20.7987H152.062L151.033 17.6505C150.907 17.2849 150.781 16.8786 150.718 16.574C150.697 16.9599 150.655 17.3661 150.592 17.8536L150.235 20.7987H149.52L150.256 15.7412H151.138L152.23 19.0113C152.356 19.3566 152.462 19.7019 152.504 19.9862C152.588 19.641 152.651 19.4175 152.777 19.0722L153.911 15.7615H154.836L155.55 20.819H154.793L154.751 20.7987Z" fill="white"/>
<path id="Vector_35" d="M158.344 18.4426C158.344 18.4426 158.008 18.4426 157.882 18.4426V20.2097C158.029 20.23 158.239 20.2503 158.533 20.2503C159.352 20.2503 159.731 19.8441 159.731 19.2957C159.731 18.6254 159.142 18.4223 158.344 18.4223M158.575 16.2693C158.344 16.2693 158.092 16.2693 157.882 16.2693V17.9146C158.071 17.9146 158.26 17.9146 158.323 17.9146C159.142 17.9146 159.626 17.6302 159.626 17.0209C159.626 16.574 159.394 16.2693 158.575 16.2693ZM158.491 20.819C158.176 20.819 157.672 20.819 157.167 20.7987V15.7413C157.546 15.7413 158.071 15.7209 158.722 15.7209C159.899 15.7209 160.361 16.2084 160.361 16.9396C160.361 17.4677 160.025 17.9146 159.478 18.1177C160.151 18.2598 160.466 18.727 160.466 19.2957C160.466 19.8847 160.13 20.8394 158.491 20.8394" fill="white"/>
<path id="Vector_36" d="M163.932 16.2896C163.071 16.2896 162.315 16.9801 162.315 18.2394C162.315 19.3159 162.714 20.2299 163.89 20.2299C164.815 20.2299 165.529 19.5597 165.529 18.3004C165.529 17.0411 164.92 16.2896 163.911 16.2896M163.848 20.8799C162.273 20.8799 161.558 19.8034 161.558 18.3207C161.558 16.6348 162.672 15.6599 163.995 15.6599C165.445 15.6599 166.306 16.5739 166.306 18.2394C166.306 19.9049 165.214 20.9002 163.848 20.9002" fill="white"/>
<path id="Vector_37" d="M169.668 20.8799C168.344 20.8799 167.651 20.23 167.651 19.0722V15.7412H168.365V18.9707C168.365 19.8644 168.869 20.2706 169.731 20.2706C170.718 20.2706 171.075 19.6816 171.075 18.8488V15.7412H171.79V18.8894C171.79 19.9659 171.18 20.8799 169.668 20.8799Z" fill="white"/>
<path id="Vector_38" d="M174.878 16.2896C174.647 16.2896 174.5 16.2896 174.353 16.3099V18.0161C174.5 18.0161 174.71 18.0161 174.899 18.0161C175.55 18.0161 175.97 17.6505 175.97 17.1021C175.97 16.5537 175.55 16.2693 174.878 16.2693M176.096 20.7987L174.374 18.5441H174.353V20.7987H173.638V15.7412C173.933 15.7412 174.395 15.7412 174.983 15.7412C176.096 15.7412 176.727 16.1881 176.727 17.0411C176.727 17.9348 176.054 18.4426 175.151 18.5035C175.277 18.6457 175.445 18.8285 175.592 19.0316L177.021 20.819H176.117L176.096 20.7987Z" fill="white"/>
<path id="Vector_39" d="M180.277 20.8798C178.807 20.8798 177.756 19.9861 177.756 18.3612C177.756 16.8582 178.765 15.6802 180.445 15.6802C180.928 15.6802 181.412 15.7411 181.874 15.9036L181.769 16.5739C181.307 16.3911 180.865 16.2895 180.403 16.2895C179.395 16.2895 178.512 16.9598 178.512 18.3003C178.512 19.5596 179.269 20.2502 180.382 20.2502C180.697 20.2502 181.012 20.1893 181.286 20.108V18.2191H182V20.5752C181.475 20.7783 180.928 20.8798 180.277 20.8798Z" fill="white"/>
<path id="Vector_40" d="M52.123 31.2589L51.6818 28.131C51.5977 27.5216 51.5557 27.1357 51.5347 26.8717C51.4927 27.0748 51.4087 27.3795 51.3036 27.7248L50.1481 31.2589H49.5179L48.4254 27.9482C48.2993 27.5826 48.1733 27.1764 48.1103 26.8717C48.0893 27.2779 48.0472 27.6841 47.9842 28.1919L47.6271 31.2589H47.0598L47.7531 26.2014H48.4674L49.5809 29.6137C49.7069 29.9793 49.812 30.3246 49.854 30.6089C49.917 30.2636 50.0011 30.0402 50.1271 29.6746L51.2826 26.2014H51.9969L52.7322 31.2589H52.144H52.123Z" fill="white"/>
<path id="Vector_41" d="M53.8248 27.5217H54.371V31.2589H53.8248V27.5217ZM54.0979 26.8514C53.8878 26.8514 53.7197 26.6889 53.7197 26.4655C53.7197 26.2421 53.8878 26.0796 54.0979 26.0796C54.308 26.0796 54.476 26.2624 54.476 26.4655C54.476 26.6686 54.308 26.8514 54.0979 26.8514Z" fill="white"/>
<path id="Vector_42" d="M58.0686 31.2589V28.8419C58.0686 28.2528 57.9215 27.9278 57.3963 27.9278C56.745 27.9278 56.2828 28.5981 56.2828 29.4715V31.2589H55.7366V27.5216H56.2828C56.2828 27.7654 56.2618 28.131 56.2198 28.3544C56.4299 27.8263 56.8711 27.4607 57.5013 27.4607C58.3207 27.4607 58.5938 28.0091 58.5938 28.659V31.2589H58.0475H58.0686Z" fill="white"/>
<path id="Vector_43" d="M60.0013 27.5217H60.5475V31.2589H60.0013V27.5217ZM60.2744 26.8514C60.0643 26.8514 59.8962 26.6889 59.8962 26.4655C59.8962 26.2421 60.0643 26.0796 60.2744 26.0796C60.4845 26.0796 60.6526 26.2624 60.6526 26.4655C60.6526 26.6686 60.4845 26.8514 60.2744 26.8514Z" fill="white"/>
<path id="Vector_44" d="M62.4592 31.3199C62.1861 31.3199 61.913 31.2995 61.7029 31.2386V30.7105C61.955 30.7715 62.2492 30.8324 62.5223 30.8324C63.0475 30.8324 63.4046 30.5887 63.4046 30.2027C63.4046 29.3091 61.6399 29.8575 61.6399 28.5372C61.6399 27.9076 62.1231 27.4404 63.0475 27.4404C63.2786 27.4404 63.5307 27.4811 63.7408 27.5217V28.0091C63.4887 27.9279 63.2156 27.8873 62.9845 27.8873C62.4592 27.8873 62.1861 28.1107 62.1861 28.4763C62.1861 29.37 63.9509 28.8622 63.9509 30.1215C63.9509 30.7918 63.3836 31.2995 62.4382 31.2995" fill="white"/>
<path id="Vector_45" d="M66.1568 31.3197C65.4425 31.3197 65.2324 30.9947 65.2324 30.2229V27.9887H64.4551V27.5419H65.2324V26.3029L65.7786 26.1404V27.5419H66.8291V27.9887H65.7786V29.9995C65.7786 30.6698 65.9047 30.8323 66.3249 30.8323C66.5139 30.8323 66.703 30.8119 66.8501 30.7713V31.2588C66.661 31.2994 66.4089 31.34 66.1778 31.34" fill="white"/>
<path id="Vector_46" d="M69.2242 26.9123L68.2158 26.1608L68.5309 25.7749L69.4763 26.6077L69.2242 26.9326V26.9123ZM69.0351 27.8873C68.5309 27.8873 68.1738 28.2732 68.0687 28.8622H69.8965C69.8965 28.2935 69.5814 27.8873 69.0351 27.8873ZM70.4637 29.2887H68.0477C68.0057 30.4058 68.4469 30.873 69.2452 30.873C69.6234 30.873 70.0226 30.7714 70.2957 30.6293L70.3377 31.1167C70.0015 31.2589 69.6024 31.3402 69.1402 31.3402C68.0477 31.3402 67.4595 30.7308 67.4595 29.4309C67.4595 28.3138 68.0477 27.481 69.0351 27.481C70.0226 27.481 70.4427 28.1919 70.4427 29.0247C70.4427 29.0856 70.4427 29.1872 70.4427 29.309" fill="white"/>
<path id="Vector_47" d="M73.2579 28.0091C72.4595 27.8669 72.0814 28.4966 72.0814 29.7559V31.2589H71.5352V27.5217H72.0814C72.0814 27.7654 72.0604 28.131 71.9974 28.456C72.1444 27.9076 72.5226 27.3592 73.2789 27.4404V27.9888L73.2579 28.0091Z" fill="white"/>
<path id="Vector_48" d="M75.2747 27.8872C74.7704 27.8872 74.4133 28.2731 74.3082 28.8621H76.136C76.136 28.2934 75.8209 27.8872 75.2747 27.8872ZM76.6823 29.2887H74.2662C74.2242 30.4058 74.6654 30.8729 75.4637 30.8729C75.8419 30.8729 76.2411 30.7714 76.5142 30.6292L76.5562 31.1167C76.2201 31.2588 75.8209 31.3401 75.3587 31.3401C74.2662 31.3401 73.678 30.7307 73.678 29.4308C73.678 28.3137 74.2662 27.481 75.2536 27.481C76.2411 27.481 76.6612 28.1918 76.6612 29.0246C76.6612 29.0855 76.6612 29.1871 76.6612 29.309" fill="white"/>
<path id="Vector_49" d="M81.5984 28.0091C81.3463 27.9482 81.1152 27.9279 80.8841 27.9279C80.1488 27.9279 79.6446 28.395 79.6446 29.5122C79.6446 30.3449 79.9177 30.8527 80.506 30.8527C81.2203 30.8527 81.5774 29.9793 81.5774 29.3294V28.0091H81.5984ZM81.5984 31.2589C81.5984 31.0355 81.5984 30.6699 81.6615 30.4465C81.4514 30.9746 81.0102 31.3198 80.4219 31.3198C79.5186 31.3198 79.0984 30.6496 79.0984 29.5528C79.0984 28.2326 79.8337 27.481 80.9472 27.481C81.1573 27.481 81.3673 27.481 81.6194 27.5217V25.7749H82.1657V31.2589H81.6194H81.5984Z" fill="white"/>
<path id="Vector_50" d="M84.7287 27.8872C84.2245 27.8872 83.8674 28.2731 83.7623 28.8621H85.5901C85.5901 28.2934 85.275 27.8872 84.7287 27.8872ZM86.1573 29.2887H83.7413C83.6993 30.4058 84.1405 30.8729 84.9388 30.8729C85.317 30.8729 85.7161 30.7714 85.9893 30.6292L86.0313 31.1167C85.6951 31.2588 85.296 31.3401 84.8338 31.3401C83.7413 31.3401 83.1741 30.7307 83.1741 29.4308C83.1741 28.3137 83.7623 27.481 84.7497 27.481C85.7372 27.481 86.1573 28.1918 86.1573 29.0246C86.1573 29.0855 86.1573 29.1871 86.1573 29.309" fill="white"/>
</g>
<path id="Vector_51" d="M89.4139 25.7749H88.8677V31.2589H89.4139V25.7749Z" fill="white"/>
<g id="Group_6">
<path id="Vector_52" d="M92.6913 29.5121C91.3257 29.5121 91.0526 29.959 91.0526 30.3246C91.0526 30.6699 91.2837 30.873 91.6408 30.873C92.2711 30.873 92.6913 30.223 92.6913 29.5731V29.5121ZM92.7333 31.2589C92.7333 30.9745 92.7333 30.6902 92.7753 30.4667C92.6072 30.9339 92.145 31.3198 91.5148 31.3198C90.9475 31.3198 90.5273 30.9948 90.5273 30.4058C90.5273 29.6137 91.3047 29.0856 92.7123 29.0856V28.7809C92.7123 28.2122 92.5232 27.9075 91.8929 27.9075C91.5358 27.9075 91.1156 28.0294 90.7794 28.2325L90.7374 27.745C91.0736 27.5826 91.4937 27.4607 91.977 27.4607C92.9644 27.4607 93.2585 27.9685 93.2585 28.6794V30.1418C93.2585 30.5074 93.2585 30.9339 93.2585 31.2589H92.7123H92.7333Z" fill="white"/>
<path id="Vector_53" d="M98.1747 31.3197C96.662 31.3197 95.9688 30.3448 95.9688 28.8418C95.9688 27.3387 96.6831 26.1404 98.3428 26.1404C98.7209 26.1404 99.1201 26.2013 99.4772 26.2826L99.4142 26.8106C99.015 26.6888 98.6369 26.6075 98.2377 26.6075C97.0402 26.6075 96.557 27.5622 96.557 28.7199C96.557 30.0198 97.1242 30.7713 98.3217 30.7713C98.6999 30.7713 99.1621 30.6495 99.4772 30.5073L99.5403 31.0151C99.1621 31.1775 98.6999 31.2791 98.1747 31.2791" fill="white"/>
<path id="Vector_54" d="M102.944 31.2587C102.944 31.015 102.944 30.6494 103.007 30.426C102.796 30.9541 102.355 31.3197 101.704 31.3197C100.885 31.3197 100.633 30.7713 100.633 30.1213V27.5215H101.179V29.9385C101.179 30.5275 101.326 30.8728 101.851 30.8728C102.502 30.8728 102.965 30.2026 102.965 29.3292V27.5418H103.511V31.279H102.965L102.944 31.2587Z" fill="white"/>
</g>
<path id="Vector_55" d="M105.402 25.7749H104.855V31.2589H105.402V25.7749Z" fill="white"/>
<g id="Group_7">
<path id="Vector_56" d="M107.839 31.3197C107.103 31.3197 106.914 30.9947 106.914 30.2229V27.9887H106.137V27.5419H106.914V26.3029L107.461 26.1404V27.5419H108.511V27.9887H107.461V29.9995C107.461 30.6698 107.587 30.8323 108.007 30.8323C108.196 30.8323 108.385 30.8119 108.511 30.7713V31.2588C108.322 31.2994 108.07 31.34 107.839 31.34" fill="white"/>
<path id="Vector_57" d="M111.851 31.259C111.851 31.0152 111.851 30.6496 111.914 30.4262C111.704 30.9543 111.263 31.3199 110.612 31.3199C109.792 31.3199 109.54 30.7715 109.54 30.1216V27.5217H110.087V29.9388C110.087 30.5278 110.234 30.8731 110.759 30.8731C111.41 30.8731 111.872 30.2028 111.872 29.3294V27.542H112.418V31.2793H111.872L111.851 31.259Z" fill="white"/>
<path id="Vector_58" d="M115.486 28.0091C114.688 27.8669 114.309 28.4966 114.309 29.7559V31.2589H113.763V27.5217H114.309C114.309 27.7654 114.288 28.131 114.225 28.456C114.372 27.9076 114.751 27.3592 115.507 27.4404V27.9888L115.486 28.0091Z" fill="white"/>
<path id="Vector_59" d="M117.482 27.8872C116.977 27.8872 116.62 28.2731 116.515 28.8621H118.343C118.343 28.2934 118.028 27.8872 117.482 27.8872ZM118.91 29.2887H116.494C116.452 30.4058 116.893 30.8729 117.692 30.8729C118.07 30.8729 118.469 30.7714 118.742 30.6292L118.784 31.1167C118.448 31.2588 118.049 31.3401 117.587 31.3401C116.494 31.3401 115.906 30.7307 115.906 29.4308C115.906 28.3137 116.494 27.481 117.482 27.481C118.469 27.481 118.889 28.1918 118.889 29.0246C118.889 29.0855 118.889 29.1871 118.889 29.309" fill="white"/>
<path id="Vector_60" d="M37.6059 0H36.9756V47H37.6059V0Z" fill="white"/>
<path id="Vector_61" d="M5.06318 30.2026C5.06318 30.2026 10.0213 34.3867 12.3743 30.5479C12.3743 30.5479 13.1936 29.1667 13.4037 27.7043C13.4037 27.7043 13.4457 26.3638 14.7063 25.6326C14.7063 25.6326 14.8533 27.5621 16.576 28.3746C16.7231 28.4355 16.8492 28.4964 16.9962 28.4761C16.9962 28.4761 16.9962 28.3543 16.7651 28.1918C16.471 28.009 16.408 28.0699 16.3239 28.009C15.9248 27.6637 15.4626 27.1762 15.4416 26.7903L16.6181 27.3184C16.6181 27.3184 17.4374 27.5824 17.5214 28.7808C17.5214 28.7808 17.6265 29.6542 18.0887 30.4057C18.0887 30.4057 15.2945 30.101 13.6138 33.3305L13.4037 32.9649C13.4037 32.9649 13.3827 34.0008 12.7524 34.3867C12.7524 34.3867 12.6474 33.7164 12.2062 33.6148C12.2062 33.6148 12.1432 34.6913 11.3869 35.1585C11.3869 35.1585 11.5129 34.4882 11.0087 34.1836C11.0087 34.1836 10.3154 35.6866 9.01285 35.6257C9.01285 35.6257 9.26496 35.0976 9.07588 34.3867C9.07588 34.3867 7.7103 35.7272 6.49178 35.1788C6.49178 35.1788 7.05902 34.7117 7.03801 33.7164C7.03801 33.7164 5.44134 34.6507 3.94971 32.3759C3.94971 32.3759 4.34888 32.8024 5.65143 32.0915C5.65143 32.0915 4.85309 31.1166 5.04217 30.2635" fill="white"/>
<path id="Vector_62" d="M7.16412 7.63701C7.16412 7.63701 8.84483 7.9823 7.50026 11.029C7.50026 11.029 6.891 13.4257 8.19356 14.5225C8.19356 14.5225 8.40364 14.7256 8.57171 15.0303C8.57171 15.0303 6.91201 15.6396 8.04649 18.7878C8.04649 18.7878 6.95403 18.4222 6.53385 17.691C6.53385 17.691 6.80697 17.5489 6.93302 17.0004C6.93302 17.0004 6.05065 17.3864 5.37836 16.4317L6.1767 15.863C6.1767 15.863 5.48341 15.8427 4.66406 14.6647L5.65148 14.2584C5.65148 14.2584 4.62204 14.0756 4.26489 12.9788H5.18928C5.18928 12.9788 4.36994 11.4758 4.60103 10.6431C4.60103 10.6431 5.2313 11.2321 5.75652 11.2727C5.75652 11.2727 6.26074 10.5212 5.56744 9.68844C5.56744 9.68844 5.2313 9.01817 5.65148 8.08386C5.65148 8.08386 5.65148 8.24634 6.23973 8.36821C6.23973 8.36821 6.82798 8.36821 7.18513 9.68844L7.31118 9.56657C7.31118 9.56657 6.76495 8.55101 7.20614 7.6167" fill="white"/>
<path id="Vector_63" d="M20.9039 25.917L21.9543 25.8155C21.9543 25.8155 26.9754 25.1249 26.8914 18.3207C26.8914 18.3207 26.7443 14.36 23.9291 12.4914C23.719 12.3492 23.2779 12.0242 22.8367 11.882C22.3745 11.7399 21.4081 11.5164 20.6097 12.0445C20.3156 12.2273 20.0005 12.6742 19.8954 12.9788C19.7904 13.2835 19.7063 14.1772 20.8618 15.1724L21.303 14.6037C21.303 14.6037 20.4837 13.9944 20.7148 13.3648C20.9669 12.7351 21.5131 12.7757 21.5761 12.7757C22.2484 12.7351 24.5384 12.8976 25.7989 17.3864C25.7989 17.3864 26.5342 20.9002 24.0132 23.6422C24.0132 23.6422 24.4333 21.9767 22.5636 19.1331C22.5636 19.1331 20.9249 16.7567 23.1728 13.7913L22.4585 13.3038C22.4585 13.3038 19.6013 16.7973 21.9543 19.7425C21.9543 19.7425 23.8031 22.0579 23.0468 23.6016C22.8787 23.9469 22.5005 24.3531 22.1014 24.475C21.7022 24.5968 20.5467 24.8609 20.5467 24.8609L20.9039 25.8967V25.917Z" fill="white"/>
<path id="Vector_64" d="M23.593 11.943C23.593 11.943 24.8536 10.3181 28.6982 9.91187C28.6982 9.91187 28.9293 11.029 26.8284 11.7196C26.8284 11.7196 26.9124 12.1461 28.7402 11.6586C28.7402 11.6586 28.0259 13.4054 25.82 12.5726C25.82 12.5726 24.8956 12.2476 24.2443 12.4914L23.593 11.943Z" fill="white"/>
<path id="Vector_65" d="M14.9373 4.61064C14.9373 4.61064 15.6936 4.99655 15.6726 6.41833L19.097 7.69793C19.097 7.69793 19.4542 6.74331 20.7987 6.29646C20.7987 6.29646 20.6727 6.05273 19.7693 6.21522C19.7693 6.21522 19.6012 5.89024 19.076 5.80899C19.076 5.80899 18.8869 6.07304 19.118 6.62144C19.118 6.62144 18.6138 6.88549 18.5088 7.00735C18.5088 7.00735 18.3617 6.64175 18.1726 6.33708C18.1726 6.33708 18.8239 6.15428 18.8239 5.62619C18.8239 5.62619 18.5298 5.76837 18.3827 5.72775C18.3827 5.72775 18.8659 5.05748 18.1936 4.48877C18.1936 4.48877 17.7314 4.83406 17.6474 5.50433C17.6474 5.50433 17.2903 5.21997 17.0592 5.17935C17.0592 5.17935 16.9121 5.50433 17.1222 6.09335C17.1222 6.09335 16.9541 6.37771 16.597 6.43864C16.597 6.43864 16.2188 6.27615 16.0927 5.78868H16.3659C16.3659 5.78868 16.639 5.62619 16.723 5.4637C16.723 5.4637 16.5129 5.32153 16.1558 5.32153V5.21997H16.2188C16.2188 5.21997 16.2398 4.34659 14.9793 4.59033" fill="white"/>
<path id="Vector_66" d="M14.7903 21.8346L14.6642 21.6924C15.7147 21.2862 16.0298 20.0472 16.0298 20.0472C16.408 18.0161 17.5004 17.9958 17.5004 17.9958L17.3534 18.1786C16.618 18.4833 16.492 19.8441 16.492 19.8441C16.45 21.5909 14.8113 21.8549 14.8113 21.8549M13.7398 21.9565L13.0045 22.2205L12.7734 22.1596L12.8364 22.0986L13.1516 22.0377C14.055 21.5096 14.4541 19.905 14.4541 19.905C15.0844 18.3411 16.1769 18.2192 16.1769 18.2192L16.2819 18.3614L16.1138 18.4426C15.0214 18.8895 14.8743 20.1285 14.8743 20.1285C14.8323 21.7127 13.7188 21.9768 13.7188 21.9768M15.9458 8.57142C15.9458 8.57142 16.0718 8.42924 16.1138 8.57142L16.1558 8.63235L16.0928 8.67297C16.0928 8.67297 16.0088 8.67297 15.8827 8.73391C15.8827 8.73391 15.7357 8.81515 15.6516 8.65266L15.9458 8.55111V8.57142ZM26.6183 36.0727C26.4712 35.7071 26.3242 35.3009 26.3242 35.3009H27.4166C26.4082 35.3009 26.3452 33.4932 26.3452 33.4932C26.0931 31.9902 26.9544 31.0152 26.9544 31.0152C24.1182 31.0965 23.4249 29.2888 23.4249 29.2888C22.1014 27.9483 21.6602 24.7594 21.6602 24.7594C21.6602 24.7594 21.5972 24.475 21.4921 24.2719C21.3661 24.0688 21.303 23.9673 21.0299 23.6626C20.6097 23.2361 19.1391 22.2814 18.95 22.1393C18.1307 21.5502 17.6895 20.8394 17.6895 20.8394C17.2063 21.469 16.555 21.6315 16.555 21.6315L16.471 21.4081C19.1811 19.641 18.1097 16.899 18.1097 16.899C18.2147 16.3303 18.6349 15.5585 18.6349 15.5585C20.5467 12.918 19.2021 9.18075 19.2021 9.18075C19.7274 8.28706 19.0551 8.18551 19.0551 8.18551C18.3618 8.02302 18.3198 8.36831 18.3198 8.36831H18.2147L18.1727 8.26675L16.2189 7.53555C15.5886 7.19026 15.2735 7.2715 15.2735 7.2715C15.2315 7.65741 15.3365 7.84022 15.3365 7.84022C15.4836 7.96208 15.6516 7.92146 15.6516 7.92146C16.3449 7.71835 16.6811 8.26675 16.6811 8.26675L16.576 8.36831C16.3869 8.14488 16.1769 8.16519 16.1769 8.16519C15.6937 8.10426 15.7147 8.40893 15.7147 8.40893C15.5466 8.65266 15.4626 8.36831 15.4626 8.36831L15.3995 8.12457C14.8743 8.0027 14.9583 7.2715 14.9583 7.2715C14.055 7.31213 13.2146 7.6371 13.2146 7.6371C12.8995 7.73866 12.9835 7.98239 12.9835 7.98239L13.2566 8.36831L13.1306 8.91671C12.8364 9.74946 13.6768 9.76977 13.6768 9.76977H14.8743C15.7987 9.97289 15.1684 10.6025 15.1684 10.6025C15.1684 11.6587 14.6222 11.4353 14.6222 11.4353C13.8239 10.8056 13.3827 11.3744 13.3827 11.3744C13.1306 11.9024 13.7188 11.9228 13.7188 11.9228C14.8953 11.9431 14.16 12.8571 14.16 12.8571C13.8869 13.5273 13.1096 13.4055 13.1096 13.4055C11.2398 13.2024 10.9036 14.157 10.9036 14.157C10.2313 14.8882 10.2944 16.9802 10.2944 16.9802C9.81116 15.7413 10.3574 14.2789 10.3574 14.2789C8.65568 14.9085 9.26493 18.1786 9.26493 18.1786C8.4666 16.4115 9.01283 15.335 9.01283 15.335C7.45817 15.5585 7.92036 17.9145 7.92036 17.9145L8.50861 19.3973L6.91194 20.2503C5.63039 20.9815 4.83206 20.3113 4.83206 20.3113C2.50007 18.077 -0.0209961 20.2097 -0.0209961 20.2097C1.23954 21.1034 2.64713 20.6972 2.64713 20.6972C2.31099 21.2456 0.861377 21.9158 0.861377 21.9158C3.31942 22.9314 4.05473 21.7534 4.05473 21.7534C4.36986 22.7892 3.82363 23.3986 3.82363 23.3986C4.76903 23.6626 5.92452 22.4439 5.92452 22.4439C5.81948 23.0126 5.3993 23.4798 5.3993 23.4798C6.28167 23.4798 7.24808 22.3018 7.24808 22.3018C7.31111 22.8705 6.95396 23.297 6.95396 23.297C8.15146 23.0939 8.82375 21.9768 8.82375 21.9768C8.86576 22.6064 8.52962 23.1142 8.52962 23.1142C9.22292 23.033 9.70612 22.4439 9.70612 22.4439C8.40357 21.4081 8.7187 20.6566 8.7187 20.6566C9.11787 22.3018 10.5045 22.5455 10.5045 22.5455C11.6179 22.3424 12.2902 20.4534 12.2902 20.4534C13.1516 18.5848 14.202 18.7879 14.202 18.7879C12.9415 19.2957 12.8364 20.1285 12.8364 20.1285C12.3532 22.0986 11.6599 22.3627 11.6599 22.3627C11.891 23.1142 13.4877 23.5407 13.4877 23.5407C13.8869 23.7438 14.4961 24.0688 14.7903 24.2313C17.3534 25.5922 17.5845 28.0092 17.5845 28.0092C17.9626 30.5481 19.8954 31.1574 19.8954 31.1574C23.656 32.437 23.3619 35.179 23.3619 35.179C23.1728 39.3022 20.7358 40.8458 20.7358 40.8458H20.7988C21.4921 41.0693 21.9123 40.8052 21.9123 40.8052C22.1224 41.4145 21.9123 41.902 21.9123 41.902C23.9081 41.5973 24.9166 39.3631 24.9166 39.3631C25.4418 40.0537 26.1981 40.0943 26.1981 40.0943C25.6729 39.2413 25.8199 37.4336 25.8199 37.4336L26.5763 37.9617L26.1981 37.007L26.051 36.3977C26.3452 36.7024 26.9544 36.9258 26.9544 36.9258C26.9124 36.743 26.7443 36.4789 26.5763 36.1133" fill="white"/>
<path id="Vector_67" d="M14.8743 25.5515C14.8743 25.5515 15.9037 25.0031 16.492 26.2015L16.9962 27.1561C16.9962 27.1561 17.3113 27.6436 17.3323 27.7654C17.3323 27.7654 17.1222 27.2983 16.2819 27.0342C16.2819 27.0342 14.9373 26.5468 14.8533 25.5718" fill="white"/>
</g>
<path id="Vector_68" d="M15.6726 6.90575L18.4248 7.98224L18.7609 7.79944L15.6936 6.70264L15.6726 6.90575Z" fill="white"/>
<path id="Vector_69" d="M11.5759 8.14478C11.5759 8.14478 11.6389 10.3587 13.5717 10.3384C13.5717 10.3384 13.7818 10.0946 15.0213 10.7446L14.9373 11.0493C14.9373 11.0493 14.4751 10.5415 13.5927 10.704C13.5927 10.704 12.3742 11.1711 11.5549 10.5009C11.5549 10.5009 10.2943 9.42438 11.5549 8.14478" fill="white"/>
</g>
<defs>
<clipPath id="clip0_49_300">
<rect width="182" height="47" fill="white"/>
</clipPath>
</defs>
</svg>
