<svg width="224" height="77" viewBox="0 0 224 77" fill="none" xmlns="http://www.w3.org/2000/svg">
<g id="unilu-c2dh-logo-white 1">
<g id="Layer 1">
<path id="Vector" d="M97.4501 9.87012H96.6001V66.9501H97.4501V9.87012Z" fill="white"/>
<path id="Vector_2" d="M20.5801 53.8001C20.2835 53.8197 19.9862 53.7752 19.7084 53.6696C19.4305 53.5641 19.1787 53.3999 18.9699 53.1883C18.7612 52.9768 18.6005 52.7227 18.4987 52.4435C18.3969 52.1642 18.3565 51.8663 18.3801 51.5701V48.0701H19.1601V51.5701C19.1345 51.7667 19.1528 51.9666 19.2138 52.1552C19.2748 52.3439 19.3768 52.5167 19.5127 52.6612C19.6485 52.8056 19.8147 52.9181 19.9993 52.9906C20.1839 53.063 20.3823 53.0936 20.5801 53.0801C20.7766 53.0883 20.9725 53.0541 21.1546 52.9799C21.3367 52.9056 21.5007 52.7931 21.6354 52.6498C21.7701 52.5065 21.8724 52.336 21.9353 52.1497C21.9983 51.9633 22.0204 51.7657 22.0001 51.5701V48.0701H22.7601V51.5701C22.7742 51.8649 22.7268 52.1595 22.621 52.4351C22.5152 52.7107 22.3532 52.9613 22.1454 53.171C21.9376 53.3807 21.6885 53.5449 21.4139 53.6532C21.1392 53.7615 20.8451 53.8115 20.5501 53.8001" fill="white"/>
<path id="Vector_3" d="M28.14 53.71L25.14 49.62L25.04 49.4701C25.0435 49.53 25.0435 49.5901 25.04 49.6501V53.71H24.27V48.07H25L27.93 52.07L28.03 52.23C28.0259 52.1701 28.0259 52.11 28.03 52.05V48.05H28.8V53.69H28.19" fill="white"/>
<path id="Vector_4" d="M31.0901 48.0701H30.3201V53.7101H31.0901V48.0701Z" fill="white"/>
<path id="Vector_5" d="M34.73 53.7101H34.25L32.25 48.0701H33L34.42 52.1401C34.443 52.205 34.4598 52.272 34.47 52.3401V52.1401L36 48.0701H36.73L34.73 53.7101Z" fill="white"/>
<path id="Vector_6" d="M37.8901 53.7101V48.0701H41.0401V48.7901H38.6601V50.5901H40.9901V51.3201H38.6601V52.9801H41.1901V53.7101H37.8901Z" fill="white"/>
<path id="Vector_7" d="M44.2501 48.7902H43.3401V50.7302H44.2301C44.3695 50.7442 44.5104 50.7287 44.6435 50.6848C44.7766 50.6409 44.899 50.5694 45.0028 50.4751C45.1065 50.3808 45.1892 50.2658 45.2456 50.1374C45.302 50.0091 45.3308 49.8704 45.3301 49.7302C45.3072 49.4664 45.1806 49.2225 44.9782 49.0519C44.7757 48.8813 44.5139 48.798 44.2501 48.8202M45.6201 53.7402L43.3401 51.1002V53.7402H42.5701V48.0702H44.3901C44.6159 48.0565 44.8421 48.0893 45.0546 48.1667C45.2672 48.2441 45.4615 48.3644 45.6257 48.52C45.7898 48.6757 45.9201 48.8635 46.0086 49.0716C46.0971 49.2798 46.1419 49.504 46.1401 49.7302C46.1324 50.1548 45.9603 50.5598 45.66 50.8601C45.3597 51.1604 44.9547 51.3325 44.5301 51.3402L46.6101 53.7102L45.6201 53.7402Z" fill="white"/>
<path id="Vector_8" d="M49.11 53.8002C48.5067 53.8117 47.9188 53.6099 47.45 53.2302L47.8899 52.6302C48.2249 52.8989 48.6406 53.0468 49.07 53.0502C49.64 53.0502 50.07 52.8002 50.07 52.2602C50.07 51.7202 49.63 51.5202 49.13 51.2602C48.33 50.8602 47.5099 50.5002 47.5099 49.4302C47.5133 49.2296 47.5579 49.0318 47.6411 48.8491C47.7243 48.6665 47.8442 48.503 47.9934 48.3688C48.1426 48.2346 48.3179 48.1327 48.5083 48.0692C48.6987 48.0058 48.9001 47.9823 49.0999 48.0002C49.6443 47.9978 50.1757 48.1656 50.6199 48.4802L50.2 49.1202C49.8862 48.869 49.4914 48.741 49.09 48.7602C48.65 48.7602 48.2799 48.9802 48.2799 49.4102C48.2799 50.0202 48.82 50.2302 49.52 50.5802C50.22 50.9302 50.84 51.3002 50.84 52.2502C50.8409 52.4709 50.7957 52.6894 50.7071 52.8916C50.6185 53.0938 50.4885 53.2751 50.3255 53.424C50.1625 53.5729 49.9701 53.6859 49.7607 53.7559C49.5514 53.8258 49.3297 53.8512 49.11 53.8302" fill="white"/>
<path id="Vector_9" d="M52.8801 48.0701H52.1101V53.7101H52.8801V48.0701Z" fill="white"/>
<path id="Vector_10" d="M56.0802 48.7901V53.7101H55.3102V48.7901H54.1602V48.0701H57.2802V48.7901H56.0802Z" fill="white"/>
<path id="Vector_11" d="M60.3801 47.6202H59.6401L60.3601 46.4802H61.1001L60.3801 47.6202ZM58.5601 53.7102V48.0702H61.7101V48.7902H59.3301V50.5902H61.6601V51.3202H59.3301V53.0002H61.8601V53.7302L58.5601 53.7102Z" fill="white"/>
<path id="Vector_12" d="M67.7801 48.7601H67.1301V53.0001H67.6401C67.9293 53.0271 68.221 52.9946 68.4973 52.9047C68.7735 52.8148 69.0284 52.6693 69.2464 52.4772C69.4643 52.2852 69.6406 52.0505 69.7645 51.7878C69.8884 51.5251 69.9573 51.2397 69.9669 50.9494C69.9764 50.6591 69.9265 50.3698 69.8201 50.0995C69.7138 49.8292 69.5533 49.5835 69.3485 49.3775C69.1436 49.1715 68.8988 49.0096 68.6291 48.9017C68.3594 48.7938 68.0705 48.7422 67.7801 48.7501M67.7801 53.7501H66.3601V48.0701H67.8001C68.1856 48.0364 68.5739 48.0841 68.9398 48.2101C69.3056 48.3362 69.6409 48.5378 69.9238 48.8019C70.2067 49.0659 70.4309 49.3865 70.5819 49.7428C70.7328 50.0991 70.8072 50.4832 70.8001 50.8701C70.8029 51.2636 70.7236 51.6535 70.5672 52.0146C70.4109 52.3758 70.1809 52.7004 69.892 52.9677C69.603 53.235 69.2616 53.439 68.8893 53.5668C68.5171 53.6947 68.1223 53.7435 67.7301 53.7101L67.7801 53.7501Z" fill="white"/>
<path id="Vector_13" d="M74.3101 53.8001C74.0135 53.8197 73.7162 53.7752 73.4383 53.6696C73.1605 53.5641 72.9087 53.3999 72.6999 53.1883C72.4912 52.9768 72.3305 52.7227 72.2287 52.4435C72.1269 52.1642 72.0864 51.8663 72.1101 51.5701V48.0701H72.8801V51.5701C72.8561 51.7672 72.8759 51.9673 72.9381 52.1559C73.0003 52.3445 73.1034 52.5171 73.24 52.6613C73.3766 52.8056 73.5433 52.9179 73.7282 52.9902C73.9132 53.0626 74.1119 53.0933 74.3101 53.0801C74.5082 53.0913 74.7064 53.0593 74.8909 52.9864C75.0755 52.9135 75.242 52.8013 75.3789 52.6577C75.5159 52.5141 75.62 52.3425 75.684 52.1547C75.7481 51.9669 75.7707 51.7674 75.7501 51.5701V48.0701H76.5201V51.5701C76.5341 51.8649 76.4868 52.1595 76.381 52.4351C76.2751 52.7107 76.1132 52.9613 75.9054 53.171C75.6976 53.3807 75.4485 53.5449 75.1738 53.6532C74.8992 53.7615 74.6051 53.8115 74.3101 53.8001Z" fill="white"/>
<path id="Vector_14" d="M77.1 43.4902H17.8V44.3002H77.1V43.4902Z" fill="white"/>
<path id="Vector_15" d="M18.4001 63.5201V57.8801H19.1801V62.7901H21.3201V63.5201H18.4001Z" fill="white"/>
<path id="Vector_16" d="M24.9999 63.6101C24.7039 63.6294 24.4071 63.5851 24.1296 63.4802C23.852 63.3753 23.6001 63.2122 23.3908 63.002C23.1815 62.7917 23.0196 62.5391 22.9159 62.2611C22.8123 61.9831 22.7693 61.6861 22.7899 61.3901V57.8801H23.5699V61.3901C23.5457 61.5869 23.5654 61.7866 23.6277 61.9748C23.69 62.163 23.7932 62.335 23.93 62.4785C24.0668 62.622 24.2337 62.7333 24.4187 62.8045C24.6037 62.8757 24.8022 62.9049 24.9999 62.8901C25.1975 62.9029 25.3956 62.8723 25.5801 62.8006C25.7647 62.7288 25.9314 62.6176 26.0685 62.4748C26.2057 62.3319 26.31 62.1609 26.3741 61.9735C26.4383 61.7862 26.4607 61.5871 26.4399 61.3901V57.8801H27.2099V61.3901C27.2241 61.6846 27.1767 61.9787 27.0708 62.2538C26.9649 62.5289 26.8028 62.7789 26.5948 62.9878C26.3869 63.1967 26.1376 63.36 25.863 63.4671C25.5884 63.5743 25.2944 63.623 24.9999 63.6101Z" fill="white"/>
<path id="Vector_17" d="M32.5999 63.5201L31.34 61.5901C31.25 61.4601 31.1 61.2001 31.1 61.2001C31.0206 61.3413 30.9339 61.4782 30.84 61.6101L29.59 63.5201H28.7L30.65 60.5201L28.92 57.8601H29.87L31 59.5501L31.17 59.8401C31.17 59.8401 31.26 59.6801 31.36 59.5301L32.45 57.8801H33.34L31.57 60.5001L33.57 63.5001H32.5999" fill="white"/>
<path id="Vector_18" d="M35.0601 63.5201V57.8801H38.2201V58.6001H35.8301V60.4001H38.1601V61.1301H35.8301V62.7901H38.3601V63.5201H35.0601Z" fill="white"/>
<path id="Vector_19" d="M45.08 63.5201V59.3701C45.075 59.2969 45.075 59.2234 45.08 59.1501L45 59.2901L43.23 61.6701H42.92L41.13 59.3501C41.1033 59.3087 41.0799 59.2653 41.06 59.2201C41.06 59.2201 41.06 59.3301 41.06 59.4301V63.5201H40.29V57.8801H41L43.12 60.6401L45.19 57.8801H45.87V63.5201H45.1" fill="white"/>
<path id="Vector_20" d="M49.68 61.1201H48.77V62.7901H49.61C50.3 62.7901 50.61 62.4501 50.61 61.9301C50.6082 61.8129 50.5816 61.6974 50.532 61.5912C50.4823 61.485 50.4107 61.3906 50.3219 61.314C50.2331 61.2375 50.1291 61.1807 50.0167 61.1472C49.9044 61.1138 49.7862 61.1046 49.67 61.1201M49.35 58.6001H48.76V60.3901H49.28C50.12 60.3901 50.28 59.8801 50.28 59.3901C50.28 58.9001 50 58.6001 49.36 58.6001H49.35ZM49.68 63.5201H48V57.8801H49.49C49.6962 57.8593 49.9045 57.8816 50.1016 57.9458C50.2987 58.0101 50.4802 58.1147 50.6346 58.253C50.7889 58.3914 50.9127 58.5604 50.998 58.7493C51.0833 58.9382 51.1283 59.1429 51.13 59.3501C51.1449 59.6034 51.0926 59.856 50.9785 60.0825C50.8643 60.3091 50.6924 60.5014 50.48 60.6401C50.7654 60.7348 51.0146 60.9153 51.1936 61.1569C51.3726 61.3985 51.4726 61.6895 51.48 61.9901C51.4781 62.2133 51.4284 62.4336 51.3342 62.6359C51.2399 62.8382 51.1033 63.018 50.9337 63.163C50.764 63.3081 50.5651 63.415 50.3506 63.4766C50.136 63.5382 49.9108 63.5531 49.69 63.5201H49.68Z" fill="white"/>
<path id="Vector_21" d="M55.6001 58.5401C55.3185 58.5294 55.0378 58.5783 54.7765 58.6837C54.5152 58.7891 54.279 58.9485 54.0836 59.1515C53.8881 59.3545 53.7378 59.5965 53.6424 59.8616C53.547 60.1268 53.5088 60.4091 53.5301 60.69C53.5248 60.9706 53.575 61.2494 53.6778 61.5105C53.7806 61.7716 53.9339 62.0099 54.1291 62.2115C54.3242 62.4131 54.5573 62.5742 54.8149 62.6855C55.0725 62.7968 55.3495 62.8561 55.6301 62.8601C55.9132 62.8619 56.1936 62.8057 56.4541 62.6948C56.7146 62.584 56.9495 62.4209 57.1445 62.2156C57.3394 62.0104 57.4902 61.7673 57.5875 61.5015C57.6848 61.2356 57.7265 60.9527 57.7101 60.67C57.729 60.3872 57.6875 60.1035 57.5884 59.8378C57.4894 59.5722 57.3349 59.3307 57.1354 59.1292C56.9359 58.9278 56.6958 58.7711 56.4311 58.6695C56.1664 58.568 55.8831 58.5238 55.6001 58.5401ZM55.6001 63.6101C55.2157 63.6169 54.8338 63.5459 54.4776 63.4014C54.1213 63.2568 53.798 63.0416 53.5271 62.7688C53.2561 62.496 53.0432 62.1712 52.9011 61.814C52.7589 61.4567 52.6906 61.0744 52.7001 60.69C52.7001 59.9236 53.0046 59.1885 53.5466 58.6465C54.0885 58.1045 54.8236 57.8 55.5901 57.8C56.3566 57.8 57.0916 58.1045 57.6336 58.6465C58.1756 59.1885 58.4801 59.9236 58.4801 60.69C58.4867 61.0695 58.418 61.4464 58.278 61.7991C58.138 62.1518 57.9294 62.4732 57.6644 62.7447C57.3993 63.0163 57.0831 63.2326 56.7339 63.3811C56.3847 63.5297 56.0095 63.6075 55.6301 63.6101H55.6001Z" fill="white"/>
<path id="Vector_22" d="M62.2401 63.6101C61.9413 63.6356 61.6404 63.5959 61.3584 63.4936C61.0765 63.3914 60.8201 63.229 60.607 63.0179C60.394 62.8067 60.2293 62.5518 60.1246 62.2707C60.0198 61.9897 59.9773 61.6892 60.0001 61.3901V57.8801H60.7801V61.3901C60.7561 61.586 60.7757 61.7847 60.8374 61.9722C60.8991 62.1596 61.0014 62.3311 61.1371 62.4744C61.2727 62.6177 61.4384 62.7292 61.6221 62.8011C61.8059 62.873 62.0033 62.9034 62.2001 62.8901C62.3981 62.9026 62.5965 62.872 62.7815 62.8003C62.9665 62.7287 63.1337 62.6177 63.2716 62.475C63.4095 62.3324 63.5148 62.1615 63.5801 61.9742C63.6455 61.7869 63.6694 61.5876 63.6501 61.3901V57.8801H64.4101V61.3901C64.4243 61.6846 64.3769 61.9787 64.271 62.2538C64.1651 62.5289 64.003 62.7789 63.795 62.9878C63.5871 63.1967 63.3378 63.36 63.0632 63.4671C62.7886 63.5743 62.4946 63.623 62.2001 63.6101" fill="white"/>
<path id="Vector_23" d="M67.89 58.6002H67V60.5402H67.9C68.0474 60.5771 68.2014 60.58 68.3501 60.5485C68.4988 60.517 68.6384 60.4521 68.7583 60.3585C68.8781 60.265 68.9751 60.1454 69.0417 60.0088C69.1084 59.8722 69.1431 59.7222 69.1431 59.5702C69.1431 59.4181 69.1084 59.2681 69.0417 59.1315C68.9751 58.9949 68.8781 58.8753 68.7583 58.7818C68.6384 58.6883 68.4988 58.6233 68.3501 58.5918C68.2014 58.5603 68.0474 58.5632 67.9 58.6002M69.27 63.5202L67 60.8802V63.5202H66.23V57.8802H68C68.4349 57.8616 68.8595 58.0166 69.1801 58.311C69.5008 58.6054 69.6914 59.0152 69.71 59.4502C69.7285 59.8851 69.5736 60.3096 69.2791 60.6303C68.9847 60.951 68.5749 61.1416 68.14 61.1602L70.22 63.5202H69.27Z" fill="white"/>
<path id="Vector_24" d="M74.0001 63.6102C73.2354 63.6023 72.505 63.2916 71.9689 62.7461C71.4328 62.2007 71.1348 61.465 71.1401 60.7002C71.1279 60.319 71.1932 59.9393 71.3319 59.584C71.4707 59.2287 71.6801 58.9053 71.9474 58.6332C72.2148 58.3612 72.5345 58.1462 72.8874 58.0013C73.2402 57.8564 73.6187 57.7846 74.0001 57.7902C74.765 57.769 75.5091 58.0409 76.0801 58.5502L75.6101 59.1202C75.1644 58.7331 74.5903 58.5263 74.0001 58.5402C73.7225 58.5392 73.4478 58.596 73.1933 58.707C72.9389 58.8179 72.7104 58.9807 72.5222 59.1848C72.3341 59.3889 72.1905 59.6299 72.1006 59.8925C72.0108 60.1552 71.9765 60.4336 72.0001 60.7102C71.9998 61.2685 72.2167 61.805 72.6049 62.2063C72.9931 62.6075 73.5221 62.842 74.0801 62.8602C74.4435 62.8784 74.8028 62.7766 75.1027 62.5707C75.4027 62.3647 75.6266 62.0659 75.7401 61.7202H74.0001V61.0002H76.6001C76.6028 61.3429 76.5374 61.6826 76.4078 61.9998C76.2782 62.317 76.0869 62.6054 75.8451 62.8481C75.6033 63.0909 75.3157 63.2832 74.999 63.4141C74.6823 63.5449 74.3428 63.6115 74.0001 63.6102Z" fill="white"/>
<path id="Vector_25" d="M61.6099 14.6102C61.2095 14.6109 60.8169 14.4986 60.4773 14.2864C60.1377 14.0741 59.8648 13.7704 59.6899 13.4102H59.4399V37.5702C59.4773 38.1189 59.7216 38.633 60.1235 39.0086C60.5254 39.3841 61.0549 39.5929 61.6049 39.5929C62.155 39.5929 62.6845 39.3841 63.0864 39.0086C63.4883 38.633 63.7326 38.1189 63.7699 37.5702V13.4102H63.5199C63.3468 13.7697 63.0757 14.073 62.7378 14.2853C62.3999 14.4975 62.009 14.6102 61.6099 14.6102Z" fill="white"/>
<path id="Vector_26" d="M46.08 20C45.681 20 45.2901 19.8874 44.9522 19.6751C44.6143 19.4628 44.3432 19.1595 44.17 18.8H43.92V37.57C43.8999 37.8653 43.9407 38.1617 44.0399 38.4406C44.1391 38.7195 44.2945 38.9751 44.4966 39.1914C44.6987 39.4077 44.9431 39.5802 45.2146 39.6981C45.4861 39.816 45.779 39.8769 46.075 39.8769C46.3711 39.8769 46.6639 39.816 46.9355 39.6981C47.207 39.5802 47.4514 39.4077 47.6535 39.1914C47.8555 38.9751 48.011 38.7195 48.1102 38.4406C48.2094 38.1617 48.2502 37.8653 48.23 37.57V18.75H48C47.8334 19.1204 47.5638 19.4351 47.2234 19.6567C46.8831 19.8783 46.4862 19.9975 46.08 20Z" fill="white"/>
<path id="Vector_27" d="M43.9202 15.6102C43.9202 15.183 44.0469 14.7654 44.2842 14.4102C44.5215 14.055 44.8589 13.7781 45.2536 13.6146C45.6483 13.4511 46.0826 13.4084 46.5016 13.4917C46.9206 13.575 47.3054 13.7808 47.6075 14.0828C47.9096 14.3849 48.1153 14.7698 48.1987 15.1888C48.282 15.6078 48.2392 16.0421 48.0757 16.4368C47.9123 16.8315 47.6354 17.1688 47.2802 17.4062C46.925 17.6435 46.5074 17.7702 46.0802 17.7702C45.5073 17.7702 44.9579 17.5426 44.5528 17.1375C44.1477 16.7325 43.9202 16.1831 43.9202 15.6102Z" fill="white"/>
<path id="Vector_28" d="M20.5401 39.73C19.9673 39.73 19.4179 39.5024 19.0128 39.0974C18.6077 38.6923 18.3801 38.1429 18.3801 37.57V20.91C18.3801 20.3371 18.6077 19.7877 19.0128 19.3826C19.4179 18.9776 19.9673 18.75 20.5401 18.75C21.113 18.75 21.6624 18.9776 22.0675 19.3826C22.4726 19.7877 22.7001 20.3371 22.7001 20.91V39.73H20.5401Z" fill="white"/>
<path id="Vector_29" d="M23.8601 39.73V20.91C23.8601 20.3371 24.0877 19.7877 24.4928 19.3826C24.8978 18.9776 25.4472 18.75 26.0201 18.75C26.593 18.75 27.1424 18.9776 27.5475 19.3826C27.9525 19.7877 28.1801 20.3371 28.1801 20.91V39.73C27.1801 39.73 26.9201 38.54 26.9201 37.39C26.9242 37.9813 26.7033 38.5521 26.3023 38.9866C25.9012 39.4211 25.3499 39.6869 24.7601 39.73H23.8601Z" fill="white"/>
<path id="Vector_30" d="M38.7999 18.7501C39.0869 18.7448 39.3721 18.7968 39.6388 18.9029C39.9055 19.0091 40.1484 19.1674 40.3532 19.3685C40.558 19.5696 40.7207 19.8095 40.8318 20.0742C40.9428 20.3389 41 20.6231 40.9999 20.9101V37.5701C40.9999 38.143 40.7724 38.6924 40.3673 39.0975C39.9622 39.5026 39.4128 39.7301 38.8399 39.7301C38.2671 39.7301 37.7177 39.5026 37.3126 39.0975C36.9075 38.6924 36.6799 38.143 36.6799 37.5701V18.7501H38.7999Z" fill="white"/>
<path id="Vector_31" d="M35.4802 18.75V37.57C35.4802 38.1429 35.2526 38.6923 34.8475 39.0974C34.4424 39.5024 33.893 39.73 33.3202 39.73C32.7473 39.73 32.1979 39.5024 31.7928 39.0974C31.3877 38.6923 31.1602 38.1429 31.1602 37.57V18.75C32.1602 18.75 32.4202 19.94 32.4202 21.09C32.4135 20.4996 32.6322 19.9289 33.0316 19.4941C33.4311 19.0593 33.9813 18.7932 34.5702 18.75H35.4802Z" fill="white"/>
<path id="Vector_32" d="M68.9001 39.7302C68.329 39.7275 67.7821 39.4988 67.3792 39.094C66.9763 38.6892 66.7501 38.1413 66.7501 37.5702V20.9102C66.73 20.6148 66.7708 20.3185 66.87 20.0396C66.9692 19.7606 67.1246 19.5051 67.3267 19.2888C67.5288 19.0724 67.7732 18.9 68.0447 18.782C68.3162 18.6641 68.6091 18.6033 68.9051 18.6033C69.2011 18.6033 69.494 18.6641 69.7655 18.782C70.0371 18.9 70.2815 19.0724 70.4835 19.2888C70.6856 19.5051 70.8411 19.7606 70.9403 20.0396C71.0395 20.3185 71.0802 20.6148 71.0601 20.9102V39.7302H68.9001Z" fill="white"/>
<path id="Vector_33" d="M72.2301 39.7302V20.9102C72.21 20.6148 72.2508 20.3185 72.3499 20.0396C72.4491 19.7606 72.6046 19.5051 72.8067 19.2888C73.0087 19.0724 73.2531 18.9 73.5247 18.782C73.7962 18.6641 74.0891 18.6033 74.3851 18.6033C74.6811 18.6033 74.974 18.6641 75.2455 18.782C75.5171 18.9 75.7614 19.0724 75.9635 19.2888C76.1656 19.5051 76.3211 19.7606 76.4202 20.0396C76.5194 20.3185 76.5602 20.6148 76.5401 20.9102V39.7302C75.5401 39.7302 75.2901 38.5402 75.2901 37.3902C75.2942 37.9815 75.0733 38.5522 74.6722 38.9868C74.2712 39.4213 73.7199 39.687 73.1301 39.7302H72.2301Z" fill="white"/>
<path id="Vector_34" d="M51.69 37.5701C51.688 37.1405 51.8136 36.72 52.0508 36.3618C52.288 36.0037 52.6263 35.724 53.0226 35.5582C53.4189 35.3924 53.8556 35.348 54.2771 35.4306C54.6987 35.5132 55.0863 35.7191 55.3908 36.0222C55.6953 36.3253 55.903 36.7119 55.9875 37.1331C56.0721 37.5543 56.0297 37.9911 55.8657 38.3882C55.7018 38.7853 55.4237 39.1248 55.0666 39.3637C54.7095 39.6026 54.2896 39.7301 53.86 39.7301C53.2862 39.7301 52.7357 39.5029 52.3291 39.0981C51.9224 38.6933 51.6926 38.1439 51.69 37.5701Z" fill="white"/>
<path id="Vector_35" d="M116.48 57.0501V53.5801H117V56.5801H118.3V57.0301L116.48 57.0501Z" fill="white"/>
<path id="Vector_36" d="M121.28 56.3001C121.218 56.4598 121.124 56.6052 121.003 56.7273C120.883 56.8493 120.739 56.9456 120.58 57.0101C120.407 57.0739 120.224 57.1077 120.04 57.1101C119.855 57.1135 119.671 57.0795 119.5 57.0101C119.341 56.9538 119.197 56.8614 119.08 56.7401C118.957 56.6188 118.861 56.4721 118.8 56.3101C118.733 56.1277 118.699 55.9346 118.7 55.7401V53.5801H119.18V55.7401C119.175 55.8834 119.198 56.0263 119.25 56.1601C119.29 56.2699 119.355 56.3691 119.44 56.4501C119.522 56.5208 119.617 56.5751 119.72 56.6101C119.826 56.6253 119.934 56.6253 120.04 56.6101C120.149 56.6253 120.261 56.6253 120.37 56.6101C120.471 56.5722 120.566 56.5182 120.65 56.4501C120.736 56.3679 120.804 56.2692 120.85 56.1601C120.901 56.0263 120.925 55.8834 120.92 55.7401V53.5801H121.39V55.7401C121.391 55.9322 121.354 56.1227 121.28 56.3001Z" fill="white"/>
<path id="Vector_37" d="M124.24 57.0501L123.47 55.8701L123.41 55.7701C123.394 55.7342 123.374 55.7006 123.35 55.6701L123.29 55.7701L123.22 55.8801L122.46 57.0501H121.92L123.11 55.2201L122 53.5801H122.58L123.24 54.5801L123.35 54.7601C123.35 54.6801 123.43 54.6201 123.46 54.5701L124.12 53.5701H124.66L123.66 55.1901L124.86 57.0401L124.24 57.0501Z" fill="white"/>
<path id="Vector_38" d="M125.3 57.0501V53.5801H127.22V54.0001H125.77V55.0901H127.19V55.5401H125.77V56.5401H127.31V56.9901L125.3 57.0501Z" fill="white"/>
<path id="Vector_39" d="M130.8 57.0501V54.5001C130.796 54.4568 130.796 54.4133 130.8 54.3701L130.75 54.4501L129.67 55.9201H129.48L128.4 54.4901V54.4101C128.404 54.4533 128.404 54.4968 128.4 54.5401V57.0501H127.93V53.5801H128.33L129.62 55.2801L130.88 53.5801H131.3V57.0501H130.8Z" fill="white"/>
<path id="Vector_40" d="M134 56.4401C133.954 56.5582 133.884 56.6654 133.795 56.7549C133.705 56.8445 133.598 56.9143 133.48 56.9601C133.328 57.0244 133.165 57.0551 133 57.0501H132V53.5801H132.91C133.046 53.5821 133.181 53.6058 133.31 53.6501C133.426 53.6855 133.532 53.7471 133.62 53.8301C133.71 53.9109 133.781 54.0097 133.83 54.1201C133.88 54.2368 133.904 54.3631 133.9 54.4901C133.908 54.6604 133.87 54.8297 133.79 54.9801C133.721 55.1003 133.625 55.203 133.51 55.2801C133.582 55.301 133.65 55.3349 133.71 55.3801C133.78 55.4321 133.844 55.4925 133.9 55.5601C133.956 55.6377 134.003 55.7216 134.04 55.8101C134.073 55.9067 134.09 56.008 134.09 56.1101C134.079 56.2244 134.049 56.3361 134 56.4401ZM133.24 54.1701C133.114 54.0739 132.958 54.0275 132.8 54.0401H132.44V55.1201H132.76C132.863 55.1378 132.967 55.1378 133.07 55.1201C133.144 55.0903 133.21 55.0421 133.26 54.9801C133.307 54.9247 133.341 54.8599 133.36 54.7901C133.37 54.7204 133.37 54.6497 133.36 54.5801C133.377 54.5072 133.376 54.431 133.355 54.3591C133.333 54.2872 133.294 54.222 133.24 54.1701ZM133.41 55.7101C133.296 55.614 133.149 55.5641 133 55.5701H132.44V56.5701H133C133.169 56.5825 133.336 56.5327 133.47 56.4301C133.52 56.3786 133.559 56.3175 133.585 56.2505C133.611 56.1834 133.623 56.1119 133.62 56.0401C133.613 55.9726 133.59 55.9077 133.554 55.8505C133.517 55.7932 133.468 55.7452 133.41 55.7101Z" fill="white"/>
<path id="Vector_41" d="M137.84 56.0002C137.753 56.2136 137.623 56.4074 137.46 56.5702C137.303 56.731 137.116 56.86 136.91 56.9502C136.692 57.0426 136.457 57.0902 136.22 57.0902C135.986 57.0902 135.755 57.0426 135.54 56.9502C135.326 56.8683 135.132 56.7423 134.97 56.5804C134.808 56.4184 134.682 56.2241 134.6 56.0102C134.507 55.7816 134.459 55.537 134.46 55.2902C134.46 55.0476 134.504 54.807 134.59 54.5802C134.686 54.361 134.825 54.1636 135 54.0002C135.155 53.8371 135.342 53.7077 135.55 53.6202C136.006 53.4407 136.514 53.4407 136.97 53.6202C137.181 53.7065 137.372 53.836 137.53 54.0002C137.682 54.1645 137.803 54.354 137.89 54.5602C137.974 54.7875 138.018 55.0278 138.02 55.2702C138.013 55.5236 137.951 55.7724 137.84 56.0002ZM137.39 54.7602C137.333 54.6066 137.245 54.4668 137.13 54.3502C137.014 54.2293 136.875 54.1339 136.72 54.0702C136.558 54.0053 136.385 53.9714 136.21 53.9702C136.035 53.9704 135.862 54.0044 135.7 54.0702C135.55 54.1359 135.414 54.2307 135.301 54.3491C135.188 54.4675 135.099 54.6073 135.04 54.7602C134.978 54.93 134.948 55.1096 134.95 55.2902C134.946 55.4719 134.981 55.6523 135.05 55.8202C135.115 55.9773 135.21 56.12 135.33 56.2402C135.447 56.36 135.586 56.4552 135.74 56.5202C135.891 56.5886 136.055 56.6227 136.22 56.6202C136.387 56.6204 136.554 56.5899 136.71 56.5302C136.86 56.4687 136.997 56.3768 137.11 56.2602C137.226 56.1386 137.318 55.9961 137.38 55.8402C137.454 55.6628 137.491 55.4723 137.49 55.2802C137.491 55.1085 137.457 54.9384 137.39 54.7802V54.7602Z" fill="white"/>
<path id="Vector_42" d="M141.1 56.3001C141.035 56.4602 140.94 56.6063 140.82 56.7301C140.698 56.8526 140.551 56.948 140.39 57.0101C140.221 57.0749 140.041 57.1088 139.86 57.1101C139.672 57.1135 139.485 57.0795 139.31 57.0101C139.152 56.9513 139.009 56.8593 138.89 56.7401C138.766 56.621 138.673 56.4733 138.62 56.3101C138.548 56.129 138.514 55.9349 138.52 55.7401V53.5801H139V55.7401C139 55.883 139.023 56.025 139.07 56.1601C139.11 56.2699 139.175 56.3691 139.26 56.4501C139.344 56.5182 139.439 56.5722 139.54 56.6101C139.649 56.6253 139.761 56.6253 139.87 56.6101C139.976 56.6253 140.084 56.6253 140.19 56.6101C140.293 56.5751 140.388 56.5208 140.47 56.4501C140.556 56.3679 140.624 56.2692 140.67 56.1601C140.727 56.0275 140.754 55.8842 140.75 55.7401V53.5801H141.21V55.7401C141.211 55.9322 141.174 56.1227 141.1 56.3001Z" fill="white"/>
<path id="Vector_43" d="M143.74 57.0501L142.35 55.4301V57.0501H141.88V53.5801H143C143.152 53.5764 143.302 53.6072 143.44 53.6701C143.566 53.7157 143.68 53.7912 143.77 53.8901C143.867 53.9789 143.942 54.0883 143.99 54.2101C144.039 54.3376 144.063 54.4735 144.06 54.6101C144.071 54.7431 144.051 54.8767 144 55.0001C143.954 55.1208 143.882 55.23 143.79 55.3201C143.7 55.408 143.595 55.4791 143.48 55.5301C143.363 55.5801 143.237 55.6073 143.11 55.6101L144.37 57.0601L143.74 57.0501ZM143.52 54.4001C143.497 54.3334 143.455 54.2745 143.4 54.2301C143.344 54.1703 143.276 54.1226 143.2 54.0901C143.109 54.0515 143.009 54.0344 142.91 54.0401H142.35V55.2201H142.9C143.079 55.2294 143.255 55.1684 143.39 55.0501C143.449 54.9894 143.494 54.9172 143.523 54.838C143.553 54.7588 143.565 54.6744 143.56 54.5901C143.56 54.5247 143.547 54.4599 143.52 54.4001Z" fill="white"/>
<path id="Vector_44" d="M147.79 56.1401C147.709 56.332 147.59 56.5055 147.44 56.6501C147.299 56.7978 147.129 56.9137 146.94 56.9901C146.753 57.069 146.553 57.1098 146.35 57.1101C146.13 57.1066 145.913 57.0625 145.71 56.9801C145.505 56.8913 145.316 56.7697 145.15 56.6201C144.987 56.4552 144.854 56.2621 144.76 56.0501C144.658 55.8206 144.606 55.5714 144.61 55.3201C144.603 55.0663 144.651 54.814 144.75 54.5801C144.837 54.3696 144.967 54.1791 145.13 54.0201C145.284 53.8599 145.472 53.7367 145.68 53.6601C145.892 53.5719 146.12 53.5277 146.35 53.5301C146.595 53.5242 146.84 53.5649 147.07 53.6501C147.27 53.738 147.456 53.856 147.62 54.0001L147.33 54.3501C147.192 54.2362 147.037 54.145 146.87 54.0801C146.701 54.0171 146.521 53.9866 146.34 53.9901C146.175 53.9876 146.011 54.0217 145.86 54.0901C145.707 54.1461 145.569 54.2388 145.46 54.3601C145.343 54.4809 145.251 54.6236 145.19 54.7801C145.128 54.9532 145.097 55.1362 145.1 55.3201C145.097 55.4952 145.131 55.669 145.2 55.8301C145.263 55.9855 145.355 56.1278 145.47 56.2501C145.586 56.3686 145.721 56.4667 145.87 56.5401C146.024 56.6087 146.191 56.6428 146.36 56.6401C146.591 56.6422 146.817 56.5761 147.01 56.4501C147.093 56.3871 147.167 56.3131 147.23 56.2301C147.292 56.1416 147.339 56.0437 147.37 55.9401H146.37V55.4901H147.95C147.94 55.7152 147.886 55.9361 147.79 56.1401Z" fill="white"/>
<path id="Vector_45" d="M152.19 56.9201C151.945 57.052 151.669 57.1175 151.39 57.1101C151.176 57.1123 150.965 57.068 150.77 56.9801C150.57 56.8982 150.387 56.7795 150.23 56.6301C150.07 56.4647 149.941 56.2715 149.85 56.0601C149.748 55.827 149.697 55.5746 149.7 55.3201C149.697 55.0772 149.741 54.8361 149.83 54.6101C149.909 54.4024 150.028 54.2122 150.18 54.0501C150.329 53.8841 150.514 53.7542 150.72 53.6701C150.933 53.5729 151.166 53.5251 151.4 53.5301C151.664 53.5225 151.926 53.5702 152.17 53.6701C152.364 53.7659 152.534 53.9023 152.67 54.0701L152.33 54.3801C152.214 54.2603 152.074 54.1651 151.92 54.1001C151.76 54.0261 151.586 53.9886 151.41 53.9901C151.248 53.9884 151.088 54.0225 150.94 54.0901C150.794 54.1493 150.661 54.2378 150.55 54.3501C150.437 54.472 150.349 54.6146 150.29 54.7701C150.22 54.9412 150.186 55.1251 150.19 55.3101C150.187 55.5089 150.224 55.7062 150.3 55.8901C150.372 56.0457 150.47 56.1878 150.59 56.3101C150.705 56.4151 150.837 56.4997 150.98 56.5601C151.112 56.6088 151.25 56.6359 151.39 56.6401C151.569 56.6411 151.747 56.6036 151.91 56.5301C152.103 56.4513 152.272 56.3238 152.4 56.1601L152.74 56.4601C152.595 56.6538 152.406 56.8112 152.19 56.9201Z" fill="white"/>
<path id="Vector_46" d="M153.27 57.0501V53.5801H155.19V54.0001H153.74V55.0901H155.16V55.5401H153.74V56.5401H155.28V56.9901L153.27 57.0501Z" fill="white"/>
<path id="Vector_47" d="M158.19 57.0501L156.39 54.5401C156.39 54.5401 156.39 54.5401 156.33 54.4401C156.334 54.48 156.334 54.5202 156.33 54.5601V57.0501H155.86V53.5801H156.26L158.04 56.0501C158.063 56.0815 158.083 56.115 158.1 56.1501C158.096 56.1102 158.096 56.07 158.1 56.0301V53.5801H158.57V57.0501H158.19Z" fill="white"/>
<path id="Vector_48" d="M160.27 54V57H159.8V54H159.1V53.54H161V54H160.27Z" fill="white"/>
<path id="Vector_49" d="M163.39 57.0501L162 55.4301V57.0501H161.53V53.5801H162.64C162.792 53.5764 162.942 53.6072 163.08 53.6701C163.206 53.7157 163.319 53.7912 163.41 53.8901C163.507 53.9789 163.582 54.0883 163.63 54.2101C163.679 54.3376 163.703 54.4735 163.7 54.6101C163.703 54.7413 163.676 54.8715 163.62 54.9901C163.574 55.1108 163.502 55.22 163.41 55.3101C163.318 55.4001 163.209 55.4714 163.09 55.5201C162.977 55.5714 162.854 55.5986 162.73 55.6001L164 57.0501H163.39ZM163.17 54.4001C163.147 54.3334 163.105 54.2745 163.05 54.2301C162.994 54.1703 162.926 54.1226 162.85 54.0901C162.758 54.0515 162.659 54.0344 162.56 54.0401H162V55.2201H162.55C162.729 55.2294 162.905 55.1684 163.04 55.0501C163.099 54.9894 163.144 54.9172 163.173 54.838C163.203 54.7588 163.215 54.6744 163.21 54.5901C163.21 54.5247 163.197 54.4599 163.17 54.4001Z" fill="white"/>
<path id="Vector_50" d="M164.4 57.0501V53.5801H166.32V54.0001H164.87V55.0901H166.28V55.5401H164.87V56.5401H166.41V56.9901L164.4 57.0501Z" fill="white"/>
<path id="Vector_51" d="M168.88 54.0001V55.0901H170V55.5401H168.85V57.0101H168.38V53.5801H170.07V54.0001H168.88Z" fill="white"/>
<path id="Vector_52" d="M173.87 56.0002C173.783 56.2136 173.653 56.4074 173.49 56.5702C173.335 56.7333 173.147 56.8626 172.94 56.9502C172.725 57.0415 172.494 57.0891 172.26 57.0902C172.023 57.091 171.788 57.0434 171.57 56.9502C171.36 56.8663 171.17 56.7404 171.01 56.5802C170.847 56.4174 170.717 56.2236 170.63 56.0102C170.537 55.7816 170.489 55.537 170.49 55.2902C170.489 55.0466 170.537 54.8052 170.63 54.5802C170.709 54.362 170.836 54.164 171 54.0002C171.155 53.8371 171.343 53.7077 171.55 53.6202C172.006 53.4407 172.514 53.4407 172.97 53.6202C173.182 53.7041 173.374 53.8338 173.53 54.0002C173.682 54.1645 173.804 54.354 173.89 54.5602C173.979 54.7862 174.023 55.0273 174.02 55.2702C174.022 55.5214 173.971 55.7702 173.87 56.0002ZM173.43 54.7602C173.37 54.606 173.278 54.4662 173.16 54.3502C173.046 54.2317 172.91 54.1365 172.76 54.0702C172.594 54.0054 172.418 53.9715 172.24 53.9702C172.065 53.9704 171.892 54.0044 171.73 54.0702C171.578 54.1338 171.442 54.2293 171.33 54.3502C171.219 54.4695 171.13 54.6085 171.07 54.7602C171.009 54.93 170.978 55.1096 170.98 55.2902C170.98 55.4726 171.017 55.653 171.09 55.8202C171.146 55.9818 171.242 56.1264 171.37 56.2402C171.481 56.3618 171.618 56.4574 171.77 56.5202C171.924 56.5879 172.091 56.6219 172.26 56.6202C172.424 56.6213 172.587 56.5907 172.74 56.5302C172.891 56.4687 173.027 56.3768 173.14 56.2602C173.259 56.1392 173.354 55.9967 173.42 55.8402C173.491 55.6621 173.525 55.4717 173.52 55.2802C173.519 55.1095 173.489 54.9403 173.43 54.7802V54.7602Z" fill="white"/>
<path id="Vector_53" d="M176.43 57.0501L175 55.4301V57.0501H174.53V53.5801H175.64C175.792 53.5764 175.942 53.6072 176.08 53.6701C176.206 53.7157 176.319 53.7912 176.41 53.8901C176.507 53.9789 176.582 54.0883 176.63 54.2101C176.679 54.3376 176.703 54.4735 176.7 54.6101C176.703 54.7413 176.676 54.8715 176.62 54.9901C176.574 55.1108 176.502 55.22 176.41 55.3101C176.32 55.398 176.215 55.4691 176.1 55.5201C175.983 55.5701 175.857 55.5973 175.73 55.6001L177 57.0501H176.43ZM176.22 54.4001C176.189 54.3351 176.145 54.2772 176.09 54.2301C176.034 54.1703 175.966 54.1226 175.89 54.0901C175.798 54.0515 175.699 54.0344 175.6 54.0401H175V55.2201H175.55C175.729 55.2304 175.906 55.1693 176.04 55.0501C176.1 54.9899 176.147 54.918 176.178 54.8388C176.209 54.7597 176.223 54.6751 176.22 54.5901C176.228 54.5271 176.228 54.4632 176.22 54.4001Z" fill="white"/>
<path id="Vector_54" d="M118.82 63.4902C118.574 63.6222 118.299 63.6877 118.02 63.6802C117.806 63.6815 117.595 63.6372 117.4 63.5502C117.2 63.4684 117.017 63.3497 116.86 63.2002C116.702 63.0365 116.574 62.8471 116.48 62.6402C116.381 62.4029 116.333 62.1473 116.34 61.8902C116.338 61.6516 116.379 61.4145 116.46 61.1902C116.54 60.9802 116.659 60.787 116.81 60.6202C116.962 60.4574 117.146 60.328 117.35 60.2402C117.568 60.147 117.803 60.0994 118.04 60.1002C118.302 60.0907 118.562 60.1421 118.8 60.2502C118.994 60.3456 119.167 60.4781 119.31 60.6402L119 61.0002C118.884 60.8774 118.744 60.7789 118.59 60.7102C118.433 60.6409 118.262 60.6067 118.09 60.6102C117.926 60.6092 117.763 60.6397 117.61 60.7002C117.461 60.7593 117.328 60.8517 117.22 60.9702C117.105 61.0868 117.017 61.2266 116.96 61.3802C116.894 61.5527 116.86 61.7357 116.86 61.9202C116.855 62.1234 116.896 62.3251 116.98 62.5102C117.047 62.6655 117.146 62.8052 117.27 62.9202C117.379 63.033 117.512 63.1186 117.66 63.1702C117.79 63.2255 117.929 63.2527 118.07 63.2502C118.245 63.25 118.418 63.216 118.58 63.1502C118.77 63.0668 118.938 62.9401 119.07 62.7802L119.41 63.0702C119.254 63.2596 119.05 63.4044 118.82 63.4902Z" fill="white"/>
<path id="Vector_55" d="M123 62.6001C122.906 62.807 122.778 62.9964 122.62 63.1602C122.461 63.3235 122.271 63.4528 122.06 63.5402C121.845 63.6326 121.614 63.6802 121.38 63.6802C121.143 63.684 120.907 63.6362 120.69 63.5402C120.481 63.4539 120.291 63.3283 120.13 63.1701C119.97 63.007 119.844 62.8131 119.76 62.6001C119.666 62.3719 119.618 62.1271 119.62 61.8802C119.616 61.6404 119.66 61.4023 119.75 61.1802C119.834 60.9672 119.96 60.7733 120.12 60.6102C120.274 60.4481 120.462 60.3218 120.67 60.2402C120.888 60.147 121.123 60.0993 121.36 60.1001C121.607 60.0983 121.852 60.1459 122.08 60.2402C122.292 60.3252 122.483 60.4548 122.64 60.6202C122.801 60.7833 122.926 60.9772 123.01 61.1902C123.095 61.4138 123.139 61.6509 123.14 61.8902C123.14 62.1337 123.093 62.3749 123 62.6001ZM122.55 61.3501C122.494 61.1965 122.405 61.0568 122.29 60.9402C122.178 60.8175 122.037 60.7247 121.88 60.6701C121.716 60.6006 121.539 60.5666 121.36 60.5702C121.185 60.5674 121.011 60.6015 120.85 60.6701C120.701 60.7292 120.568 60.8216 120.46 60.9402C120.345 61.0568 120.257 61.1965 120.2 61.3501C120.14 61.5202 120.109 61.6996 120.11 61.8802C120.108 62.065 120.141 62.2485 120.21 62.4201C120.276 62.5766 120.371 62.7192 120.49 62.8402C120.608 62.959 120.747 63.054 120.9 63.1202C121.221 63.2502 121.58 63.2502 121.9 63.1202C122.055 63.0613 122.195 62.9691 122.31 62.8501C122.427 62.7294 122.519 62.5866 122.58 62.4302C122.655 62.253 122.692 62.0624 122.69 61.8702C122.679 61.6903 122.635 61.514 122.56 61.3501H122.55Z" fill="white"/>
<path id="Vector_56" d="M126 63.6202L124.2 61.1102L124.14 61.0202C124.144 61.0567 124.144 61.0936 124.14 61.1302V63.6202H123.67V60.1602H124.07L125.84 62.6202L125.91 62.7202C125.906 62.6836 125.906 62.6467 125.91 62.6102V60.1602H126.38V63.6202H126Z" fill="white"/>
<path id="Vector_57" d="M128.11 60.6102V63.6102H127.64V60.6102H126.94V60.1602H128.84V60.6102H128.11Z" fill="white"/>
<path id="Vector_58" d="M129.37 63.6202V60.1602H131.28V60.6102H129.84V61.7102H131.25V62.1602H129.84V63.1602H131.37V63.6102L129.37 63.6202Z" fill="white"/>
<path id="Vector_59" d="M134.86 63.6202V61.0702C134.856 61.0269 134.856 60.9834 134.86 60.9402L134.81 61.0202L133.74 62.4902H133.55L132.46 61.0602V60.9802C132.46 61.0402 132.46 61.0802 132.46 61.1102V63.6202H132V60.1602H132.4L133.69 61.8502L134.94 60.1602H135.36V63.6202H134.86Z" fill="white"/>
<path id="Vector_60" d="M138.1 61.6202C138.049 61.7437 137.975 61.856 137.88 61.9502C137.783 62.0444 137.672 62.1221 137.55 62.1802C137.423 62.2315 137.287 62.2587 137.15 62.2602H136.51V63.6202H136V60.1602H137C137.157 60.1597 137.313 60.1868 137.46 60.2402C137.594 60.2928 137.716 60.3709 137.82 60.4702C137.919 60.5608 137.994 60.674 138.04 60.8002C138.093 60.9373 138.12 61.0831 138.12 61.2302C138.143 61.36 138.136 61.4934 138.1 61.6202ZM137.51 60.7602C137.362 60.6527 137.182 60.5997 137 60.6102H136.51V61.8102H137C137.177 61.8191 137.352 61.7621 137.49 61.6502C137.555 61.5959 137.607 61.5267 137.64 61.4484C137.673 61.37 137.687 61.2849 137.68 61.2002C137.688 61.1186 137.677 61.0362 137.648 60.9598C137.618 60.8833 137.571 60.8149 137.51 60.7602Z" fill="white"/>
<path id="Vector_61" d="M142 62.6001C141.91 62.8093 141.781 62.9993 141.62 63.1602C141.465 63.3232 141.278 63.4526 141.07 63.5402C140.855 63.6315 140.624 63.6791 140.39 63.6802C140.153 63.686 139.917 63.6381 139.7 63.5402C139.49 63.4562 139.3 63.3303 139.14 63.1701C138.977 63.0074 138.848 62.8136 138.76 62.6001C138.666 62.3719 138.618 62.1271 138.62 61.8802C138.619 61.6398 138.667 61.4016 138.76 61.1802C138.837 60.9659 138.96 60.7712 139.12 60.6102C139.278 60.4523 139.465 60.3267 139.67 60.2402C139.889 60.1488 140.123 60.1012 140.36 60.1001C140.61 60.0983 140.858 60.1459 141.09 60.2402C141.301 60.3275 141.491 60.4568 141.65 60.6202C141.804 60.7865 141.926 60.9797 142.01 61.1901C142.099 61.4126 142.143 61.6505 142.14 61.8902C142.14 62.1337 142.093 62.3749 142 62.6001ZM141.56 61.3501C141.5 61.1959 141.408 61.0562 141.29 60.9401C141.179 60.8214 141.042 60.7291 140.89 60.6701C140.726 60.6006 140.549 60.5666 140.37 60.5702C140.195 60.5655 140.021 60.5996 139.86 60.6701C139.707 60.7261 139.569 60.8188 139.46 60.9401C139.349 61.0594 139.261 61.1985 139.2 61.3501C139.14 61.5202 139.109 61.6996 139.11 61.8802C139.111 62.0656 139.148 62.2491 139.22 62.4201C139.282 62.5786 139.378 62.7218 139.5 62.8402C139.614 62.9587 139.75 63.0538 139.9 63.1202C140.057 63.1798 140.223 63.2103 140.39 63.2102C140.554 63.2112 140.717 63.1807 140.87 63.1202C141.021 63.0587 141.157 62.9667 141.27 62.8501C141.393 62.7326 141.489 62.5892 141.55 62.4302C141.621 62.2523 141.656 62.0617 141.65 61.8702C141.636 61.6896 141.589 61.5133 141.51 61.3501H141.56Z" fill="white"/>
<path id="Vector_62" d="M144.51 63.6202L143.12 62.0002V63.6202H142.65V60.1602H143.76C143.911 60.1533 144.061 60.1807 144.2 60.2402C144.324 60.2908 144.436 60.3656 144.53 60.4602C144.627 60.549 144.702 60.6583 144.75 60.7802C144.798 60.908 144.822 61.0437 144.82 61.1802C144.825 61.3147 144.797 61.4484 144.74 61.5702C144.69 61.6859 144.619 61.791 144.53 61.8802C144.44 61.9681 144.335 62.0392 144.22 62.0902C144.105 62.1461 143.978 62.1735 143.85 62.1702L145.11 63.6202H144.51ZM144.3 61.0002C144.272 60.9305 144.228 60.8687 144.17 60.8202C144.114 60.7603 144.046 60.7127 143.97 60.6802C143.874 60.6634 143.776 60.6634 143.68 60.6802H143.12V61.8002H143.67C143.76 61.8063 143.85 61.7935 143.934 61.7625C144.019 61.7314 144.096 61.683 144.16 61.6202C144.22 61.56 144.267 61.4881 144.298 61.4089C144.329 61.3298 144.343 61.2451 144.34 61.1602C144.335 61.1053 144.321 61.0514 144.3 61.0002Z" fill="white"/>
<path id="Vector_63" d="M147.75 63.6202L147.34 62.5002H146.24L145.83 63.6202H145.33L146.65 60.1602H146.95L148.27 63.6202H147.75ZM146.82 61.0802V60.9902C146.817 61.0201 146.817 61.0502 146.82 61.0802L146.46 62.0802H147.22L146.82 61.0802Z" fill="white"/>
<path id="Vector_64" d="M150.6 63.6202L149.21 62.0002V63.6202H148.74V60.1602H149.85C150.001 60.1533 150.151 60.1807 150.29 60.2402C150.414 60.2908 150.526 60.3656 150.62 60.4602C150.716 60.549 150.792 60.6583 150.84 60.7802C150.891 60.9074 150.918 61.0431 150.92 61.1802C150.92 61.3143 150.893 61.4469 150.84 61.5702C150.784 61.6849 150.71 61.7897 150.62 61.8802C150.53 61.9681 150.425 62.0392 150.31 62.0902C150.195 62.1461 150.068 62.1735 149.94 62.1702L151.2 63.6202H150.6ZM150.39 61.0002C150.362 60.9305 150.317 60.8687 150.26 60.8202C150.204 60.7603 150.136 60.7127 150.06 60.6802C149.964 60.6634 149.866 60.6634 149.77 60.6802H149.21V61.8002H149.76C149.85 61.8063 149.94 61.7935 150.024 61.7625C150.109 61.7314 150.186 61.683 150.25 61.6202C150.31 61.56 150.357 61.4881 150.388 61.4089C150.419 61.3298 150.433 61.2451 150.43 61.1602C150.424 61.1053 150.411 61.0514 150.39 61.0002Z" fill="white"/>
<path id="Vector_65" d="M152.77 62.0001V63.6101H152.3V62.0001L151.12 60.1501H151.67L152.49 61.4401L152.55 61.5401C152.548 61.5068 152.548 61.4735 152.55 61.4401L153.38 60.1501H154L152.77 62.0001Z" fill="white"/>
<path id="Vector_66" d="M157.63 63.6202L157.22 62.5002H156.12L155.71 63.6202H155.21L156.53 60.1602H156.83L158.15 63.6202H157.63ZM156.7 61.0802V60.9902C156.703 61.0201 156.703 61.0502 156.7 61.0802L156.35 62.0802H157.11L156.7 61.0802Z" fill="white"/>
<path id="Vector_67" d="M160.94 63.6202L159.14 61.1102L159.08 61.0202C159.084 61.0567 159.084 61.0936 159.08 61.1302V63.6202H158.61V60.1602H159.01L160.79 62.6202L160.85 62.7202C160.846 62.6836 160.846 62.6467 160.85 62.6102V60.1602H161.32V63.6202H160.94Z" fill="white"/>
<path id="Vector_68" d="M164.61 62.5602C164.526 62.767 164.4 62.9543 164.24 63.1102C164.067 63.2706 163.868 63.3993 163.65 63.4902C163.397 63.581 163.129 63.6251 162.86 63.6202H162V60.1602H162.88C163.146 60.1544 163.41 60.1985 163.66 60.2902C163.874 60.3726 164.068 60.4986 164.23 60.6602C164.388 60.8155 164.511 61.0031 164.59 61.2102C164.671 61.4242 164.712 61.6513 164.71 61.8802C164.718 62.111 164.684 62.3414 164.61 62.5602ZM164.15 61.3802C164.081 61.2281 163.987 61.0893 163.87 60.9702C163.752 60.8469 163.609 60.7512 163.45 60.6902C163.272 60.6197 163.081 60.5857 162.89 60.5902H162.49V63.2002H162.8C163.023 63.2058 163.244 63.165 163.45 63.0802C163.622 63.0188 163.777 62.9157 163.9 62.7802C164.02 62.6641 164.11 62.5197 164.16 62.3602C164.216 62.21 164.243 62.0505 164.24 61.8902C164.241 61.7161 164.211 61.5433 164.15 61.3802Z" fill="white"/>
<path id="Vector_69" d="M169.29 62.5602C169.206 62.767 169.08 62.9543 168.92 63.1102C168.749 63.2729 168.549 63.4019 168.33 63.4902C168.077 63.5819 167.809 63.626 167.54 63.6202H166.71V60.1602H167.58C167.846 60.1544 168.11 60.1985 168.36 60.2902C168.575 60.3751 168.772 60.5007 168.94 60.6602C169.092 60.8187 169.211 61.0056 169.29 61.2102C169.371 61.4242 169.412 61.6513 169.41 61.8802C169.412 62.1122 169.371 62.3427 169.29 62.5602ZM168.83 61.3802C168.761 61.2281 168.667 61.0893 168.55 60.9702C168.432 60.8469 168.289 60.7512 168.13 60.6902C167.952 60.6197 167.761 60.5857 167.57 60.5902H167.18V63.2002H167.48C167.703 63.2067 167.924 63.1658 168.13 63.0802C168.305 63.0234 168.46 62.9196 168.58 62.7802C168.7 62.6641 168.79 62.5197 168.84 62.3602C168.896 62.21 168.923 62.0505 168.92 61.8902C168.921 61.7161 168.891 61.5433 168.83 61.3802Z" fill="white"/>
<path id="Vector_70" d="M170 63.6202V60.1602H170.47V63.6202H170Z" fill="white"/>
<path id="Vector_71" d="M174.19 62.7201C174.106 62.9106 173.988 63.0836 173.84 63.2301C173.696 63.3713 173.526 63.4834 173.34 63.5601C173.154 63.6401 172.953 63.6809 172.75 63.6801C172.53 63.6815 172.312 63.6372 172.11 63.5501C171.903 63.471 171.715 63.3482 171.56 63.1901C171.39 63.0282 171.254 62.8345 171.16 62.6201C171.058 62.3905 171.006 62.1414 171.01 61.8901C171.008 61.6399 171.056 61.3918 171.15 61.1601C171.237 60.9466 171.367 60.7528 171.53 60.5901C171.688 60.4352 171.875 60.3129 172.08 60.2301C172.527 60.0565 173.023 60.0565 173.47 60.2301C173.67 60.3143 173.855 60.429 174.02 60.5701L173.73 60.9201C173.594 60.8084 173.442 60.7175 173.28 60.6501C173.11 60.5914 172.93 60.5642 172.75 60.5701C172.582 60.5682 172.416 60.5987 172.26 60.6601C172.108 60.719 171.971 60.8113 171.86 60.9301C171.743 61.0488 171.654 61.1923 171.6 61.3501C171.529 61.5246 171.495 61.7118 171.5 61.9001C171.498 62.0719 171.532 62.2421 171.6 62.4001C171.662 62.556 171.754 62.6985 171.87 62.8201C171.985 62.9395 172.121 63.0377 172.27 63.1101C172.424 63.1786 172.591 63.2127 172.76 63.2101C172.876 63.226 172.994 63.226 173.11 63.2101C173.216 63.1723 173.316 63.1219 173.41 63.0601C173.497 63.0025 173.572 62.9276 173.63 62.8401C173.696 62.7578 173.744 62.6623 173.77 62.5601H172.77V62.1101H174.35C174.338 62.3221 174.284 62.5296 174.19 62.7201Z" fill="white"/>
<path id="Vector_72" d="M174.84 63.6202V60.1602H175.31V63.6202H174.84Z" fill="white"/>
<path id="Vector_73" d="M177 60.6102V63.6102H176.53V60.6102H175.83V60.1602H177.73V60.6102H177Z" fill="white"/>
<path id="Vector_74" d="M180.08 63.6202L179.66 62.5002H178.57L178.15 63.6202H177.66L179 60.1602H179.3L180.63 63.6202H180.08ZM179.14 61.0802L178.78 62.0802H179.55L179.14 61.0802Z" fill="white"/>
<path id="Vector_75" d="M181.07 63.6202V60.1602H181.54V63.1602H182.84V63.6102L181.07 63.6202Z" fill="white"/>
<path id="Vector_76" d="M186.84 63.6202V62.1302H185.2V63.6202H184.73V60.1602H185.2V61.6802H186.84V60.1602H187.31V63.6202H186.84Z" fill="white"/>
<path id="Vector_77" d="M188 63.6202V60.1602H188.47V63.6202H188Z" fill="white"/>
<path id="Vector_78" d="M191 63.1202C190.941 63.2354 190.863 63.3401 190.77 63.4302C190.67 63.5088 190.558 63.5728 190.44 63.6202C190.307 63.6604 190.169 63.6807 190.03 63.6802C189.854 63.6789 189.679 63.6519 189.51 63.6002C189.331 63.5417 189.165 63.4501 189.02 63.3302L189.29 62.9602C189.339 63.0025 189.393 63.0394 189.45 63.0702L189.63 63.1502C189.691 63.1761 189.755 63.193 189.82 63.2002H190.01C190.159 63.206 190.306 63.164 190.43 63.0802C190.485 63.0385 190.528 62.9836 190.556 62.9207C190.584 62.8578 190.596 62.7888 190.59 62.7202C190.606 62.6545 190.606 62.5859 190.59 62.5202C190.552 62.4625 190.509 62.4089 190.46 62.3602C190.407 62.3058 190.346 62.2587 190.28 62.2202L190.06 62.1002L189.7 61.9102C189.584 61.8521 189.476 61.778 189.38 61.6902C189.285 61.6079 189.21 61.5054 189.16 61.3902C189.095 61.2599 189.064 61.1155 189.07 60.9702C189.068 60.8499 189.092 60.7305 189.14 60.6202C189.188 60.5118 189.256 60.4134 189.34 60.3302C189.427 60.2454 189.533 60.1835 189.65 60.1502C189.781 60.1003 189.92 60.0765 190.06 60.0802C190.227 60.0807 190.392 60.1077 190.55 60.1602C190.708 60.209 190.856 60.2833 190.99 60.3802L190.73 60.7602C190.635 60.6914 190.531 60.6375 190.42 60.6002C190.298 60.5772 190.172 60.5772 190.05 60.6002C189.929 60.5951 189.809 60.6303 189.71 60.7002C189.661 60.7306 189.622 60.7736 189.595 60.8246C189.569 60.8757 189.557 60.9329 189.56 60.9902C189.557 61.0774 189.578 61.1637 189.62 61.2402C189.662 61.3062 189.717 61.3638 189.78 61.4102C189.852 61.4713 189.933 61.5218 190.02 61.5602L190.32 61.7102L190.61 61.8702C190.702 61.9292 190.786 61.9997 190.86 62.0802C190.94 62.161 191.005 62.2559 191.05 62.3602C191.101 62.4802 191.125 62.6099 191.12 62.7402C191.104 62.8733 191.063 63.0022 191 63.1202Z" fill="white"/>
<path id="Vector_79" d="M192.57 60.6102V63.6102H192.1V60.6102H191.4V60.1602H193.3V60.6102H192.57Z" fill="white"/>
<path id="Vector_80" d="M196.83 62.6001C196.74 62.8093 196.611 62.9993 196.45 63.1602C196.293 63.321 196.106 63.45 195.9 63.5402C195.682 63.6326 195.447 63.6802 195.21 63.6802C194.976 63.6852 194.743 63.6373 194.53 63.5402C194.316 63.4583 194.122 63.3323 193.96 63.1703C193.798 63.0084 193.672 62.8141 193.59 62.6001C193.496 62.3719 193.448 62.1271 193.45 61.8802C193.451 61.6409 193.495 61.4038 193.58 61.1802C193.664 60.9672 193.79 60.7733 193.95 60.6102C194.106 60.4502 194.293 60.3243 194.5 60.2402C194.718 60.147 194.953 60.0993 195.19 60.1001C195.44 60.0983 195.688 60.1459 195.92 60.2402C196.129 60.3301 196.319 60.459 196.48 60.6202C196.634 60.7865 196.756 60.9797 196.84 61.1901C196.925 61.4138 196.969 61.6509 196.97 61.8902C196.97 62.1337 196.922 62.3749 196.83 62.6001ZM196.39 61.3501C196.326 61.1979 196.235 61.0589 196.12 60.9401C196.009 60.8214 195.872 60.7291 195.72 60.6701C195.555 60.6015 195.378 60.5675 195.2 60.5702C195.025 60.5655 194.851 60.5996 194.69 60.6701C194.537 60.7261 194.399 60.8188 194.29 60.9401C194.175 61.0568 194.087 61.1965 194.03 61.3501C193.969 61.5202 193.939 61.6996 193.94 61.8802C193.942 62.0645 193.976 62.2472 194.04 62.4201C194.11 62.5746 194.204 62.7165 194.32 62.8402C194.439 62.9568 194.578 63.0516 194.73 63.1202C194.883 63.1797 195.046 63.2103 195.21 63.2102C195.377 63.2103 195.544 63.1798 195.7 63.1202C195.851 63.0587 195.987 62.9667 196.1 62.8501C196.22 62.73 196.315 62.5872 196.38 62.4302C196.447 62.251 196.48 62.0613 196.48 61.8702C196.482 61.6928 196.451 61.5166 196.39 61.3501Z" fill="white"/>
<path id="Vector_81" d="M199.39 63.6202L198 62.0002V63.6202H197.53V60.1602H198.64C198.791 60.1533 198.941 60.1807 199.08 60.2402C199.204 60.2908 199.316 60.3656 199.41 60.4602C199.507 60.549 199.582 60.6583 199.63 60.7802C199.678 60.908 199.702 61.0437 199.7 61.1802C199.705 61.3147 199.677 61.4484 199.62 61.5702C199.57 61.6859 199.499 61.791 199.41 61.8802C199.318 61.9702 199.209 62.0415 199.09 62.0902C198.978 62.146 198.855 62.1735 198.73 62.1702L200 63.6202H199.39ZM199.17 61.0002C199.149 60.9293 199.108 60.8665 199.05 60.8202C198.994 60.7603 198.926 60.7127 198.85 60.6802C198.754 60.6634 198.656 60.6634 198.56 60.6802H198V61.8002H198.55C198.64 61.8051 198.729 61.7917 198.814 61.7607C198.898 61.7298 198.975 61.682 199.04 61.6202C199.099 61.5595 199.144 61.4872 199.173 61.4081C199.203 61.3289 199.215 61.2445 199.21 61.1602C199.208 61.1046 199.195 61.0501 199.17 61.0002Z" fill="white"/>
<path id="Vector_82" d="M201.55 62.0001V63.6101H201.08V62.0001L199.9 60.1501H200.45L201.28 61.4401L201.33 61.5401C201.343 61.5031 201.364 61.4691 201.39 61.4401L202.21 60.1501H202.75L201.55 62.0001Z" fill="white"/>
<path id="Vector_83" d="M182.48 27.9502H177.01V33.4202H182.48V27.9502Z" fill="white"/>
<path id="Vector_84" d="M191.36 36.4702H185.89V41.9402H191.36V36.4702Z" fill="white"/>
<path id="Vector_85" d="M186.04 19.9702H180.57V25.4402H186.04V19.9702Z" fill="white"/>
<path id="Vector_86" d="M159.17 19.3901H153.7V24.8601H159.17V19.3901Z" fill="white"/>
<path id="Vector_87" d="M172.98 17.0901H167.51V22.5601H172.98V17.0901Z" fill="white"/>
<path id="Vector_88" d="M182.67 40.1802H177.2V45.6502H182.67V40.1802Z" fill="white"/>
<path id="Vector_89" d="M145.9 13.55H140.43V19.02H145.9V13.55Z" fill="white"/>
<path id="Vector_90" d="M150.13 35.8302C149.6 35.3125 148.975 34.9017 148.29 34.6202C147.518 34.3102 146.692 34.1572 145.86 34.1702H144.15V45.3702H145.48C146.447 45.3956 147.409 45.2291 148.31 44.8802C149.039 44.5936 149.7 44.1576 150.25 43.6002C150.748 43.0871 151.13 42.4734 151.37 41.8002C151.603 41.1588 151.725 40.4825 151.73 39.8002C151.735 39.0659 151.592 38.3382 151.31 37.6602C151.046 36.9761 150.644 36.3534 150.13 35.8302Z" fill="white"/>
<path id="Vector_91" d="M116.43 28.55V49.93H171.28V28.55H116.43ZM130.51 46.6501C129.426 47.1977 128.225 47.4723 127.01 47.4501C126.097 47.4477 125.192 47.2641 124.35 46.91C123.476 46.5554 122.678 46.0359 122 45.3801C121.303 44.7014 120.746 43.8928 120.36 43C119.928 41.9893 119.714 40.8991 119.73 39.8C119.723 38.7743 119.909 37.7564 120.28 36.8C120.621 35.8946 121.138 35.0654 121.8 34.3601C122.457 33.663 123.25 33.1082 124.13 32.73C125.078 32.3275 126.1 32.1266 127.13 32.14C128.264 32.0985 129.392 32.3139 130.43 32.7701C131.274 33.1681 132.021 33.7447 132.62 34.46L131.12 35.8C130.62 35.2829 130.026 34.8655 129.37 34.57C128.676 34.271 127.926 34.1211 127.17 34.1301C126.483 34.1353 125.804 34.2746 125.17 34.5401C124.537 34.8036 123.962 35.1912 123.48 35.68C122.988 36.1894 122.6 36.7909 122.34 37.4501C121.757 39.0152 121.782 40.7424 122.41 42.2901C122.696 42.925 123.092 43.5041 123.58 44C124.072 44.4583 124.645 44.8211 125.27 45.07C125.84 45.2968 126.447 45.4155 127.06 45.42C127.826 45.4105 128.583 45.2543 129.29 44.96C130.113 44.6059 130.84 44.0609 131.41 43.37L132.88 44.6301C132.266 45.4855 131.452 46.1787 130.51 46.6501ZM140 40.43H134.25L138 35.67C138.205 35.429 138.367 35.1551 138.48 34.8601C138.535 34.6748 138.565 34.4832 138.57 34.2901C138.579 34.0264 138.521 33.7648 138.4 33.53C138.302 33.3433 138.162 33.1823 137.99 33.0601C137.833 32.948 137.657 32.8666 137.47 32.82C137.307 32.7749 137.139 32.7514 136.97 32.75C136.72 32.7423 136.472 32.7865 136.24 32.8801C136.047 32.9615 135.874 33.0857 135.736 33.2433C135.597 33.4009 135.496 33.5878 135.44 33.7901C135.38 33.9981 135.35 34.2135 135.35 34.43H134.21C134.206 34.0132 134.281 33.5993 134.43 33.21C134.561 32.8776 134.762 32.5775 135.02 32.3301C135.265 32.0883 135.563 31.9069 135.89 31.8C136.241 31.6781 136.609 31.6172 136.98 31.6201C137.319 31.6214 137.656 31.6719 137.98 31.7701C138.306 31.8637 138.609 32.0237 138.87 32.2401C139.14 32.4638 139.359 32.7436 139.51 33.0601C139.68 33.4474 139.762 33.8674 139.75 34.2901C139.751 34.6306 139.693 34.9688 139.58 35.2901C139.449 35.6559 139.253 35.9948 139 36.2901L136.52 39.2901H140V40.43ZM153.33 42.64C152.958 43.5323 152.403 44.3364 151.7 45C150.961 45.6954 150.091 46.236 149.14 46.59C148.048 47.0031 146.887 47.2034 145.72 47.18H142.12V32.34H145.91C147.06 32.3241 148.202 32.5208 149.28 32.92C150.215 33.2697 151.067 33.8113 151.78 34.51C152.447 35.1813 152.971 35.9807 153.32 36.8601C154.041 38.7194 154.041 40.7807 153.32 42.64H153.33ZM167.52 47.2001H165.52V40.8101H158.39V47.2001H156.39V32.34H158.39V38.8801H165.52V32.34H167.52V47.2001Z" fill="white"/>
</g>
</g>
</svg>
