<svg width="1728" height="1327" viewBox="0 0 1728 1327" fill="none" xmlns="http://www.w3.org/2000/svg">
<g clip-path="url(#clip0_809_12729)">
<path d="M56.71 32.2799C46.1216 32.2799 34.8188 33.7631 23.3391 33.7631C16.8094 33.7631 10.2295 27.8305 5.54132 27.8305C0.724403 27.8305 -6.90367 32.8185 -12.2565 33.7631C-19.8221 35.0982 -10.8411 63.483 -10.7733 67.546C-10.2565 98.5562 -23.2803 128.953 -27.7472 159.584C-34.2317 204.049 -32.079 249.222 -40.4364 293.397C-46.0263 322.943 -50.6141 354.257 -51.972 384.281C-53.3082 413.826 -50.7916 443.309 -49.0057 472.776C-47.1443 503.488 -43.4027 533.696 -43.4027 564.566C-43.4027 600.666 -49.2466 635.577 -55.5975 671.024C-66.571 732.271 -64.8914 794.346 -61.2005 856.17C-59.7545 880.39 -56.5528 904.663 -53.7847 928.762C-51.3785 949.711 -49.8154 973.094 -40.4364 992.373C-28.2186 1017.49 -50.4593 1111.78 -27.7472 1114C-12.3234 1115.5 -27.3517 1387.42 -12.2565 1391C11.1972 1384.21 1781.32 1411.59 1784.66 1391C1788.98 1364.4 1809.46 924.4 1813.5 897.616C1820.14 853.614 1813.58 808.826 1810.87 764.792C1808.11 719.939 1810.47 674.011 1812.1 629.166C1812.98 605.097 1815.02 581.008 1812.02 556.986C1808.98 532.704 1804.1 509.31 1798.67 485.465C1790.64 450.233 1783.81 416.802 1780.54 380.82C1775.05 320.418 1776.23 258.597 1784.66 198.393C1789.53 163.662 1790.04 133.839 1771.97 102.73C1766.02 92.4824 1758.83 82.927 1753.02 72.6546C1749.91 67.1508 1750.62 61.2058 1754.18 56.3399C1757.28 52.0885 1761.59 52.2801 1761.59 46.2875C1761.59 40.2269 1759.25 35.624 1757.47 29.9728C1755.07 22.3233 1747.9 12.679 1740.83 9.70307C1737.08 8.12363 1733.29 6.83402 1729.7 4.84163C1726.02 2.7961 1723.54 5.39012 1720.06 5.58321C1712.47 6.0051 1703.16 6.64041 1695.76 5.50081C1691.79 4.891 1690.58 0.610697 1687.76 6.24239C1685.2 11.3695 1681.88 10.0327 1676.31 10.0327C1672.27 10.0327 1670.12 9.6264 1666.67 10.0327C1663.76 10.3746 1660.92 12.7587 1657.77 11.1862C1653.55 9.07522 1655.88 6.56308 1651.1 5.50081C1647.16 4.62572 1648.98 2.37695 1644.42 2.61691C1639.89 2.85553 1634.89 1.88514 1630.42 2.6993C1626.11 3.48161 1625.79 7.06636 1620.78 7.06636C1612.99 7.06636 1604.73 3.80923 1596.96 2.6993C1591.75 1.95508 1587.12 3.16893 1582.13 0.804166C1577.17 -1.54693 1578.63 1.81424 1574.71 3.77047C1567.26 7.49573 1556.86 3.25081 1549.17 5.9128C1544.8 7.42485 1532.61 12.2548 1528.08 7.72554C1525.27 4.92062 1523.65 8.57242 1520.99 5.9128C1518.35 3.27466 1518.85 1.13375 1514.65 1.13375C1504.52 1.13375 1494.36 0.852682 1484.24 1.13375C1479.18 1.27451 1466.5 0.946549 1462 2.94649C1457.93 4.75474 1455.57 2.7817 1452.35 2.7817C1451.15 2.7817 1451.73 5.55599 1451.53 6.24239C1451.22 7.32648 1448.83 7.29479 1447.91 7.80793C1444.61 9.63719 1440.41 7.06636 1436.78 7.06636C1433.55 7.06636 1429.69 3.47902 1427.22 4.18245C1422.12 5.64 1417.51 7.42804 1412.39 9.70307C1408.52 11.4236 1405.33 8.54951 1401.93 8.54951C1397.63 8.54951 1393.78 10.0327 1389.32 10.0327C1381.86 10.0327 1378.69 15.8002 1370.04 14.5645C1361.98 13.4126 1353.81 12.999 1345.57 12.999C1341.41 12.999 1334.74 14.4186 1331.48 11.5158C1327.92 8.35365 1327.82 8.97812 1324.06 11.1862C1317.06 15.3066 1308.67 14.951 1300 17.1188C1295.92 18.1395 1291.87 14.4821 1287.73 14.4821C1285.02 14.4821 1282.18 15.8005 1280.23 15.8005C1275.84 15.8005 1266.32 12.891 1262.51 10.7742C1259.56 9.13238 1247.89 7.37085 1245.13 8.21992C1237.77 10.4821 1230.57 3.7543 1224.69 4.10006C1220.09 4.3708 1216.36 3.46066 1211.34 4.01766C1207.01 4.49888 1204.26 1.19996 1201.62 3.35848C1192.13 11.1212 1175.69 5.5777 1164.54 7.80793C1156.3 9.45668 1148.49 9.80105 1140.15 10.0327C1134.44 10.1914 1129.86 13.3335 1123.84 12.999C1120.85 12.8328 1122.76 15.9233 1118.56 17.4484C1114.19 19.0382 1110.31 18.9316 1105.71 18.9316C1102.72 18.9316 1097.56 19.6893 1094.92 21.1563C1091.37 23.124 1089.19 19.6136 1086.1 20.4971C1084.39 20.9851 1085.95 23.5326 1084.95 24.5346C1084.08 25.3969 1081.95 24.6942 1080.83 25.1938C1077.14 26.8309 1072.93 26.6968 1068.96 27.8305C1057.71 31.0444 1061.9 21.8979 1053.39 21.8979C1047.08 21.8979 1053.21 24.8088 1049.68 26.6769C1046.81 28.1971 1043.3 29.3136 1040.04 29.3136C1035.17 29.3136 1027.57 33.9907 1022.98 31.9503C1018.42 29.9242 1018.3 30.3669 1016.97 25.6881C1016.79 25.0487 1012.65 21.0994 1012.6 21.8979C1011.85 33.9075 997.397 22.4594 996.369 27.0889C995.475 31.1095 988.566 32.4267 984.75 32.2799C982.425 32.1905 981.337 29.4784 979.312 29.4784C978.59 29.4784 977.583 31.7078 977.088 29.9728C976.473 27.8213 978.442 21.7534 974.039 23.7106C970.893 25.1086 968.223 24.7329 964.81 24.8642C962.788 24.942 960.494 26.8207 958.548 26.2649C957.202 25.8803 955.309 26.6869 953.5 27.0889C947.555 28.4101 952 27.8305 946.5 29.3136C945 34.9166 940.5 35.9878 934 33.4335C921.629 28.572 923.363 30.0672 917.679 30.8792C914.154 31.3827 912.445 32.9078 909.934 34.9166C908.115 36.3714 898.45 36.6442 895.63 36.7238L895.432 36.7294C886.042 36.9977 881.317 34.8793 872.855 31.9503C869.282 30.7136 865.255 30.3323 861.979 29.396C859.853 28.7888 858.235 25.9187 856.128 27.0889C852.005 29.3795 846.983 23.7773 843 22.6394C839.57 21.6594 833.959 20.9415 831.5 21.8979C828.716 22.9806 822.176 23.141 820 21.8979C816.016 23.381 812.287 15.7653 808.5 17.4484C806.393 18.3846 804.99 22.6394 800.5 17.4484C798.901 19.4473 794.509 23.7106 789.5 17.4484C786.645 16.5699 781.808 15.8884 779 17.4484C776.272 18.9638 768.145 20.0933 765.5 17.4484C762.589 14.537 763.5 12 756 15.6357C753.449 19.4628 752.006 18.5 748 18.5C741.272 18.5 739.386 21.8959 734.51 25.6881C731.15 28.3017 728.641 29.2405 724.87 31.1264C721.776 32.6729 718.197 31.3887 715.641 33.4335C705.281 41.7217 689.833 34.8035 681.117 27.8305C678.738 25.9279 676.091 26.1733 672.959 26.3473C668.565 26.5914 669.154 27.3038 664.884 24.8642C662.009 23.2211 659.851 23.381 656.315 23.381C652.594 23.381 647.953 27.3243 644.779 26.0177C639.523 23.8535 631.994 29.9246 625.498 26.6769C619.37 23.6128 614.811 30.7823 608.442 32.1975C601.377 33.7676 594.454 29.3136 587.678 29.3136C580.849 29.3136 576.265 29.0051 570.622 26.0177C567.023 24.1123 563.753 27.1455 560.981 25.6057C558.377 24.1588 555.6 23.4614 552.824 22.2275C549.164 20.6008 546.891 23.5454 546.891 18.19C546.891 14.3304 547.327 12.999 543.101 12.999C539.377 12.999 516.186 14.5347 515.745 15.3061C511.833 22.1526 498.365 24.9904 491.356 26.2649C484.551 27.502 485.954 35.2462 477.842 35.2462C470.63 35.2462 465.893 34.3379 460.869 29.3136C456.006 24.4515 444.491 31.1229 438.621 30.7968C434.815 30.5853 432.705 26.3473 428.981 26.3473C426.817 26.3473 423.185 26.8262 422.389 24.0402C420.671 18.0276 411.473 20.4147 405.25 20.4147C400.403 20.4147 396.295 23.2094 391.49 23.381C389.246 23.4612 383.955 21.7019 383.745 23.381C382.951 29.7328 367.196 28.0524 362.981 27.8305C358.872 27.6142 357.76 26.6735 353.423 27.9129C351.321 28.5133 351.279 32.9747 348.808 33.6807C345.879 34.5175 344.981 29.7002 341.887 31.9503C338.407 34.4812 334.123 31.763 333.235 28.6544C332.376 25.6459 316.013 29.739 314.037 30.4672C311.187 31.5172 311.172 26.3619 309.67 31.6207C308.74 34.8743 305.276 33.7631 302.171 33.7631C298.585 33.7631 295.981 33.1598 292.613 32.1975C289.191 31.2197 288.902 32.8392 285.115 33.6807C279.928 34.8334 283.028 27.8305 279.924 27.8305C276.506 27.8305 275.96 29.694 271.767 27.8305C264.816 24.741 264.442 32.2799 257.677 32.2799C254.327 32.2799 251.547 33.7631 248.036 33.7631C244.979 33.7631 242.472 30.9493 239.879 30.7968C234.367 30.4726 228.175 28.9375 222.823 27.7481C217.031 26.4609 212.804 21.8979 206.508 21.8979C203.942 21.8979 199.364 20.8455 198.021 23.381C196.623 26.0219 195.552 27.8305 192.418 27.8305C186.711 27.8305 183.874 28.8699 180.883 32.6095C177.928 36.303 180.271 35.2462 174.621 35.2462C170.92 35.2462 169.971 35.1788 167.205 33.1039C166.692 32.7193 163.716 33.8165 162.755 33.7631C160.718 33.6499 159.974 31.9606 158.306 31.1264C154.457 29.2018 152.021 33.9509 150.066 35.9054C148.476 37.4953 144.558 39.6731 142.321 37.8829C139.807 35.8719 138.997 38.2125 136.059 38.2125C130.184 38.2125 125.558 36.7294 119.744 36.7294C114.378 36.7294 111.342 28.8537 104.253 30.8792C102.037 31.5123 99.8779 35.1062 97.4967 35.2462C93.6153 35.4745 92.5166 35.9094 90.0809 38.9541C88.8121 40.5401 83.1393 41.8854 81.182 40.8492C78.2804 39.3131 78.7952 41.8805 76.7326 40.8492C75.9639 40.4649 73.7663 34.504 73.7663 34.6694C73.7663 37.7121 71.0582 38.7158 68.9872 37.059C66.3063 34.9142 65.4148 41.0278 62.6426 38.8717C60.2209 36.9881 60.0904 32.2799 56.71 32.2799Z" fill="#FF0000"/>
</g>
<defs>
<clipPath id="clip0_809_12729">
<rect width="1728" height="1327" fill="white"/>
</clipPath>
</defs>
</svg>
